<?xml version="1.0" encoding="utf-8"?>
<!-- Generator: Adobe Illustrator 13.0.0, SVG Export Plug-In . SVG Version: 6.00 Build 14948)  -->
<!DOCTYPE svg PUBLIC "-//W3C//DTD SVG 1.1//EN" "http://www.w3.org/Graphics/SVG/1.1/DTD/svg11.dtd">
<svg version="1.1" id="Layer_1" xmlns="http://www.w3.org/2000/svg" xmlns:xlink="http://www.w3.org/1999/xlink" x="0px" y="0px"
	 width="1024px" height="1024px" viewBox="0 0 1024 1024" enable-background="new 0 0 1024 1024" xml:space="preserve">
<g>
	<g>
		<path fill="#14679B" d="M954.619,629.763c34.882-19.312,22.425-41.735,5.606-58.555c-16.819-16.814-9.818-28.83-9.818-28.83
			c45.459-36.368,34.853-60.61-18.184-104.554c-53.037-43.944-50.004-69.704-39.396-104.554
			c10.606-34.851-16.669-33.336-33.339-92.433c-16.665-59.097-83.34-130.314-236.383-130.314
			c-132.297,0-200.936,55.863-229.289,87.638c10.008,49.941,33.148,104.333,79.29,156.899
			c147.469,168.003,376.958,386.35,183.756,653.177c-0.212,0.295-0.409,0.583-0.621,0.879c0,0-21.702,7.804-58.397,12.11
			c119.949,15.646,138.976-37.769,159.934-120.496c23.669-93.438,60.424-113.369,122.712-112.749
			c62.289,0.621,71.012-27.407,67.898-70.387c-3.113-42.981,19.312-30.521,28.031-49.832S954.619,629.763,954.619,629.763z"/>
		<path fill="#86C541" d="M585.96,1019.503c-2.692-46.554-23.482-172.103-160.915-306.684
			c-173.681-170.08-240.273-278.965-234.873-407.65c4.311-102.74,49.923-193.97,95.16-251.784
			C42.566,205.843-46.731,596.188,161.028,829.718c163.463,183.733,332.908,200.771,425.085,192.709
			C586.07,1021.488,586.02,1020.514,585.96,1019.503z"/>
		<linearGradient id="SVGID_1_" gradientUnits="userSpaceOnUse" x1="384.7183" y1="147.1577" x2="612.7028" y2="969.3995">
			<stop  offset="0" style="stop-color:#B6D437"/>
			<stop  offset="0.3901" style="stop-color:#B6D437"/>
			<stop  offset="1" style="stop-color:#86C541"/>
		</linearGradient>
		<path fill="url(#SVGID_1_)" d="M473.107,355.059c-46.142-52.565-69.282-106.958-79.29-156.899C371.801,88.316,413.307,0,413.307,0
			s-265.11,245.798-93.437,472.789c166.161,219.7,325.958,297.537,336.993,535.447C850.065,741.409,620.576,523.063,473.107,355.059
			z"/>
		<path fill="#14679B" d="M319.871,472.789C148.197,245.798,413.307,0,413.307,0c-46.214,10.586-89.057,28.943-127.975,53.385
			c-45.236,57.814-90.849,149.044-95.16,251.784c-5.4,128.686,61.192,237.57,234.873,407.65
			C562.478,847.4,583.268,972.949,585.96,1019.503c0.06,1.011,0.11,1.985,0.153,2.924c4.06-0.357,7.976-0.76,11.731-1.201
			c36.695-4.307,58.397-12.11,58.397-12.11c0.212-0.296,0.409-0.584,0.621-0.879C645.829,770.326,486.031,692.489,319.871,472.789z"
			/>
	</g>
	<rect fill="none" width="1024" height="1024"/>
</g>
</svg>
