<?xml version="1.0" encoding="UTF-8" standalone="no"?>
<svg
   xmlns:dc="http://purl.org/dc/elements/1.1/"
   xmlns:cc="http://creativecommons.org/ns#"
   xmlns:rdf="http://www.w3.org/1999/02/22-rdf-syntax-ns#"
   xmlns:svg="http://www.w3.org/2000/svg"
   xmlns="http://www.w3.org/2000/svg"
   xmlns:xlink="http://www.w3.org/1999/xlink"
   xmlns:sodipodi="http://sodipodi.sourceforge.net/DTD/sodipodi-0.dtd"
   xmlns:inkscape="http://www.inkscape.org/namespaces/inkscape"
   inkscape:version="1.0.2 (e86c870879, 2021-01-15, custom)"
   sodipodi:docname="logoDark.svg"
   xml:space="preserve"
   style="enable-background:new 0 0 128 128;"
   viewBox="0 0 128 128"
   y="0px"
   x="0px"
   id="Layer_1"
   version="1.1"><metadata
   id="metadata47"><rdf:RDF><cc:Work
       rdf:about=""><dc:format>image/svg+xml</dc:format><dc:type
         rdf:resource="http://purl.org/dc/dcmitype/StillImage" /><dc:title /></cc:Work></rdf:RDF></metadata><defs
   id="defs45"><linearGradient
     id="linearGradient104"
     inkscape:collect="always"><stop
       id="stop100"
       offset="0"
       style="stop-color:#9bb4d3;stop-opacity:1;" /><stop
       id="stop102"
       offset="1"
       style="stop-color:#9bb4d3;stop-opacity:0;" /></linearGradient><linearGradient
     gradientUnits="userSpaceOnUse"
     y2="-6.1035157e-06"
     x2="156.42875"
     y1="-6.1035157e-06"
     x1="-156.49682"
     id="linearGradient106"
     xlink:href="#linearGradient104"
     inkscape:collect="always" /></defs><sodipodi:namedview
   inkscape:current-layer="g40"
   inkscape:window-maximized="0"
   inkscape:window-y="108"
   inkscape:window-x="209"
   inkscape:cy="36.919327"
   inkscape:cx="-74.312024"
   inkscape:zoom="3.2786553"
   showgrid="false"
   id="namedview43"
   inkscape:window-height="1198"
   inkscape:window-width="2037"
   inkscape:pageshadow="2"
   inkscape:pageopacity="0"
   guidetolerance="10"
   gridtolerance="10"
   objecttolerance="10"
   borderopacity="1"
   bordercolor="#666666"
   pagecolor="#ffffff"
   inkscape:document-rotation="0" />
<style
   id="style10"
   type="text/css">
	.st0{fill-rule:evenodd;clip-rule:evenodd;fill:url(#SVGID_1_);}
	
		.st1{fill-rule:evenodd;clip-rule:evenodd;fill:none;stroke:#9C9C9C;stroke-width:0.5;stroke-linecap:round;stroke-linejoin:round;stroke-miterlimit:3;}
	.st2{fill:#CECECD;}
	.st3{fill-rule:evenodd;clip-rule:evenodd;fill:#E2E2E1;}
	.st4{fill-rule:evenodd;clip-rule:evenodd;fill:#33446B;}
</style>
<symbol
   viewBox="-156.5 -178.6 312.9 357.3"
   id="final_x5F_logo_x5F_1.ai_x2F_Illustrator_Sym">
	<g
   id="Layer_1_2_">
		<g
   id="g29">
			<g
   id="g27">
				<linearGradient
   y2="0"
   x2="156.2065"
   y1="0"
   x1="-156.2067"
   gradientUnits="userSpaceOnUse"
   id="SVGID_1_">
					<stop
   id="stop12"
   style="stop-color:#9bb4d3"
   offset="0" />
					<stop
   id="stop14"
   style="stop-color:#33446B"
   offset="0.1961" />
					<stop
   id="stop16"
   style="stop-color:#6E9DCD"
   offset="0.4745" />
					<stop
   id="stop18"
   style="stop-color:#33446B"
   offset="0.7137" />
					<stop
   id="stop20"
   style="stop-color:#6E9DCD"
   offset="1" />
				</linearGradient>
				<path
   id="path23"
   class="st0" />
				<path
   id="path25"
   class="st1" />
			</g>
		</g>
	</g>
</symbol>
<g
   id="g40"><path
   class="cls-1"
   d="m 0.14092201,104.58921 c 4.83182809,-2.34136 9.90357599,-4.32338 15.04218499,-6.18132 2.578155,-0.913666 5.18581,-1.772546 7.815095,-2.594358 2.629286,-0.821812 5.290035,-1.569503 7.972418,-2.27852 1.335292,-0.362565 2.688282,-0.688066 4.03537,-1.029685 1.356923,-0.312609 2.713851,-0.631667 4.082571,-0.915273 2.727613,-0.592995 5.484726,-1.10542 8.259534,-1.57756 a 119.61183,98.010116 0 0 1 16.87305,-1.754814 94.701468,77.598523 0 0 1 17.053975,0.631669 c 2.812173,0.346451 5.610583,0.762192 8.379493,1.27784 0.692229,0.128912 1.376589,0.272326 2.068818,0.409295 0.692225,0.136969 1.376588,0.280383 2.058981,0.441523 1.376585,0.304555 2.719746,0.655841 4.072736,0.997456 l 2.013757,0.549488 c 0.672555,0.182087 1.335295,0.388346 2.001955,0.580103 0.66666,0.191756 1.32743,0.399626 1.98622,0.605885 0.6588,0.206259 1.31759,0.422187 1.96655,0.64456 2.60962,0.887884 5.18188,1.843439 7.69907,2.882799 1.25269,0.528537 2.49753,1.069972 3.73645,1.633952 0.61553,0.28039 1.22714,0.56399 1.83481,0.85566 0.60767,0.29166 1.20353,0.5946 1.79349,0.89593 1.1937,0.61072 2.37757,1.2295 3.5398,1.88051 1.16224,0.651 2.28907,1.33424 3.38838,2.05292 l -0.12586,0.14341 a 83.52553,68.440944 0 0 0 -7.15434,-3.54507 q -3.67549,-1.6388 -7.48863,-3.06166 A 119.37978,97.819966 0 0 0 97.371381,93.352923 Q 93.353704,92.400587 89.257368,91.685125 C 86.527789,91.214598 83.774612,90.845588 81.0116,90.542644 L 78.932952,90.3525 C 78.586838,90.32349 78.240724,90.28482 77.89461,90.26387 l -1.042276,-0.06929 c -0.694195,-0.04189 -1.388389,-0.09991 -2.08455,-0.128913 l -2.088482,-0.08218 c -0.696161,-0.03706 -1.392323,-0.03062 -2.09045,-0.0435 l -1.04424,-0.01289 c -0.348081,0 -0.696162,-0.0097 -1.044242,0 -1.394288,0.02094 -2.788575,0.02901 -4.178931,0.101518 -2.78661,0.09185 -5.563385,0.312612 -8.332295,0.578492 -1.376589,0.14825 -2.766944,0.28683 -4.143532,0.475363 -0.688297,0.09185 -1.376589,0.16114 -2.064886,0.272326 l -2.060952,0.306168 c -2.741376,0.428631 -5.472922,0.895936 -8.182835,1.450258 -1.358895,0.257823 -2.704016,0.560767 -4.05504,0.844373 -1.351025,0.283604 -2.696147,0.589775 -4.029472,0.928167 -2.680418,0.64456 -5.3392,1.335847 -7.982253,2.072261 -2.643049,0.736401 -5.270368,1.511487 -7.866223,2.334907 -5.21334,1.64202 -10.3637496,3.42745 -15.36470149,5.4562 z"
   id="path6"
   style="fill:#33446b;stroke-width:0.178014" />
	
	
	
		<g
   transform="matrix(0.3583,0,0,-0.3583,64,64.000002)"
   style="fill:url(#linearGradient106);fill-opacity:1"
   id="sheild_1_">
	
</g>
	<path
   id="path38"
   d="M96.9,58.4c-0.9-0.1-1.2,0.6-0.8,2.2c0.4,1.6,0.4,3.2-0.1,5c-0.5,1.8,0.3,3.9,2.4,6.6c1.1,1.4,2.2,2.6,3.4,3.7   l0.2,0.2l3.6,3.6c0.3,0.2,0.6,0.4,0.9,0.5c0.2,0.1,0.8,0.6,1.8,1.4c1,0.8,1.7,1.6,2.3,2.5c-0.2,2.4-0.1,4.6,0.3,6.5   c0.1,0.9,0.3,1.7,0.6,2.2c0.2,1.3-0.6,2.7-2.4,4.1c-0.8,0.9-1.7,1.4-2.8,1.5l-1.5-0.1c-1,0.1-1.6-0.4-1.8-1.6l0.1-1.9l0.8-1.6   c0.6-0.8,0.9-1.7,0.9-2.9l-0.3-1.6l-4.5-5.3L98.6,83c-1.7-0.6-4.4-2.4-8.1-5.4c-1.8-1.1-3.2-2.3-4.3-3.5l-1.6-3.3   c0,0.9-0.7,1.7-2.1,2.4c-1,2-1.1,4.6-0.3,7.6c0.5,1.5,1,2.9,1.6,4c0.3,0.7,0.6,1.4,0.9,1.9c0.3,0.5,0.4,1.2,0.2,1.9   c-0.1,0.7-0.3,2.6-0.4,5.7c-0.3,1.7-0.4,3.1-0.4,4.2c0,0.2,0,0.3,0,0.4c-0.1,0-0.3,0.1-0.6,0.3c0.1,0,0.3,0,0.5,0l-0.5,0.1   l-0.2,0.1L76,99.8c-1-0.1-1.4-0.7-1.3-1.9l0.4-1.8c0.3-0.7,0.9-1.1,1.6-1.3c0.4-0.1,0.7-0.2,1-0.2c1-0.3,1.4-1.1,1-2.2   c0.1-0.7-0.2-1.3-0.9-2l-1.1-0.9c-1.8-0.5-3.6-3-5.3-7.5l-2-6.5c-1.3,0.4-2.5,0.1-3.6-0.8l-1.2-1.3l-0.9,0.8l0.5,5   c0.2,1.1,0.1,3.2-0.1,6.1c0,0.5-0.4,1.5-1.2,2.9c-0.4,0-0.8,0-1.3,0.2L61,88.8c-1.5,0.9-3.9,1-7.2,0.3c-0.5-0.6-0.5-1.4,0-2.3   l1-1.1c1.3-0.3,1.9-0.7,2-1.3c0.5-0.5,0.6-1.5,0.5-3l-0.4-2c-0.4-0.6-0.7-1.4-0.9-2.2l-0.3-1.1c0-0.4-0.2-1-0.5-1.8l-0.5-1.1   L51.8,75c-0.6,1.9-1.2,4.4-2,7.4l-0.3,6.9c0,0.4-0.3,1-0.8,1.6c-0.5,0.6-0.8,0.9-1,0.9c-0.6,0-1.4,0.1-2.2,0.4l-1.1,0.4   c-1,0.7-1.9,1.1-2.9,1.3c-0.3,0.1-0.6,0.1-0.9,0.1l0.3,0c-1.9,0.1-3-0.2-3.4-0.8l0.1-1.1c-0.3-0.9-0.1-1.6,0.6-2.2l1.1-0.6   c1.1-0.2,1.8-0.8,2-1.8c0.9-0.5,1.3-2.1,1.3-4.8c0.3-2.1,0.1-4.3-0.6-6.8l-1.1-3C39.9,70,39.2,67.1,39,64v-3.8   c-0.1-1.2-0.4-2.5-0.9-4L37.7,54c-0.4-3.5,0-6.8,1.4-9.9l2.2-3.6c0-1.4,0.5-2.7,1.5-4l-0.5,0.7c2.4-4.1,4.8-7.3,7.3-9.4l3.5-2.4   c0.9-0.5,1.9-1.6,2.8-3.6c0.3-0.6,0.8-1,1.3-1.2c0.2-0.1,0.4-0.1,0.7,0c0.7,0,1.2,0.4,1.6,1.3c0.2,0.5,0.3,1,0.3,1.4   c2-0.6,4-0.4,6.1,0.8c1.1,0.6,1.9,1.3,2.6,2c0.8,1.2,1.6,2.1,2.3,2.6c1.1,0.7,2.5,1.8,4.1,3.3c0.4,1.4,0.1,2.7-0.8,3.8   c-0.7,1.1-1.4,1.8-2.2,2.2c-0.1,0.8-0.4,1.7-0.9,2.8C70.1,41.6,69.1,42,68,42c-0.9,0.1-1.7-0.1-2.4-0.8l-0.8-1   c-0.6-0.5-1.5-0.7-2.7-0.3l-1.6,0.7c-0.5,0.7-0.7,1.6-0.3,2.8c0.2,0.6,0.4,1.1,0.7,1.5c1,1.1,2.5,2,4.4,2.5c0.8,0.5,2.1,0.9,3.7,1   c0.9,0,1.6,0,2.2,0c2.3-0.9,5.6-1.4,9.9-1.3c5.6,0.5,9.9,1.2,12.8,2.1c1.7,0.6,3.3,1.4,4.7,2.5v0c2.1,2,3.7,3.9,4.9,5.6   c1.2,1.7,2.3,4,3.4,6.8c1.1,2.8,1.7,4.4,1.8,4.8c0.1,0.4,0.3,0.9,0.5,1.3c0.3,0.8,0.7,1.7,1.2,2.6c0.1,0.3,0.3,0.5,0.4,0.8   c0.3,0.5,0.6,0.9,0.9,1.4c0,0.1,0.1,0.1,0.1,0.2c0.4,0.5,0.8,1,1.2,1.5c0.1,0.1,0.1,0.2,0.2,0.2c0.1,0.1,0.1,0.2,0.3,0.3   c0,0.1,0.1,0.1,0.2,0.2c0.3,0.3,0.6,0.5,0.9,0.8c0.3,0.2,0.8,0.6,1.6,1.3c0.8,0.6,2.1,1.3,3.8,1.9c1.8,0.7,3.3,1.3,4.7,2.1   c1.3,0.7,1.6,1.5,0.6,2.3c-0.9,0.8-3,0.7-6.2-0.4l-3.7-1.4v0c-0.4-0.1-0.7-0.3-1-0.5c-0.2-0.1-0.5-0.3-0.7-0.4   c-0.1-0.1-0.2-0.2-0.3-0.3c-0.3-0.2-0.6-0.5-0.9-0.7c-0.2-0.2-0.4-0.3-0.5-0.5c0,0,0,0,0,0c-0.3-0.3-0.5-0.6-0.8-0.8   c-0.3-0.3-0.6-0.6-0.8-0.9c-0.2-0.2-0.3-0.4-0.5-0.6c-0.3-0.3-0.5-0.7-0.8-1c-0.3-0.3-0.5-0.7-0.8-1c-0.1-0.2-0.2-0.3-0.3-0.5   c-0.2-0.3-0.5-0.7-0.7-1c-0.5-0.7-0.9-1.4-1.3-2.1c-0.1-0.3-0.3-0.5-0.4-0.8c-0.5-0.9-0.8-1.7-1.1-2.6c-0.1-0.4-0.3-0.8-0.4-1.3   c0,0,0-0.1,0-0.1c-1-3.6-2.1-6.2-3.5-7.8C99,59.3,97.8,58.5,96.9,58.4z"
   class="st4" />
<path
   style="fill:#9bb4d3;fill-opacity:0.733333;stroke-width:0.305003"
   d="m 7.3017197,101.60552 c 0.2919295,-0.29166 9.3282193,-3.583609 13.7881363,-5.023065 4.075216,-1.315293 7.3182,-2.220606 15.552197,-4.341555 0.634131,-0.163341 1.073851,-0.424994 0.977156,-0.581448 -0.339496,-0.549317 0.498497,-1.525098 1.934799,-2.252927 1.165539,-0.590623 1.617035,-1.064192 2.29826,-2.410607 0.783128,-1.547824 0.850232,-1.962695 0.880065,-5.440883 0.03196,-3.725912 0.01732,-3.80894 -1.398559,-7.938422 -1.539612,-4.490341 -2.332437,-8.726246 -2.33535,-12.477317 -9.15e-4,-1.273415 -0.216421,-2.989058 -0.478736,-3.812539 -0.262312,-0.82348 -0.552034,-3.007004 -0.643822,-4.852272 -0.205953,-4.140348 0.289003,-6.341338 2.160544,-9.607598 0.720906,-1.258137 1.402856,-2.786961 1.515451,-3.397386 0.246058,-1.334009 3.043189,-5.854328 5.411102,-8.744635 1.12404,-1.372022 2.727908,-2.79892 4.660868,-4.14659 2.396605,-1.67093 3.12239,-2.365342 3.885569,-3.71762 0.51616,-0.914588 1.189125,-1.797032 1.495473,-1.960985 0.890984,-0.47684 2.015442,0.132601 2.401186,1.301411 l 0.33902,1.027246 2.05465,-0.0066 c 2.487065,-0.008 4.477052,0.900404 6.333044,2.890927 2.013756,2.159721 2.711368,2.807304 4.826589,4.480456 1.56555,1.238357 2.027627,1.783912 2.027627,2.39393 0,1.148803 -0.884985,2.833602 -2.138755,4.071682 -0.601875,0.594339 -1.25998,1.648787 -1.462456,2.343215 -0.462507,1.586229 -1.56742,2.349104 -3.442354,2.376731 -1.210087,0.01783 -1.581456,-0.138266 -2.671869,-1.123053 -1.415364,-1.278265 -1.918677,-1.365295 -3.722282,-0.643636 -1.547324,0.619116 -1.951898,1.5093 -1.480906,3.258431 0.470369,1.746826 1.970829,3.041465 4.78099,4.125178 3.080034,1.187787 5.578019,1.470417 7.353079,0.831951 0.733145,-0.263702 2.860541,-0.633676 4.727548,-0.822164 2.985227,-0.301381 3.98302,-0.26574 8.274608,0.295562 8.741288,1.143284 11.421915,2.192344 14.897378,5.830072 3.68462,3.856648 5.08752,6.330766 7.96172,14.041129 1.47726,3.962902 3.07336,7.154363 4.31745,8.632874 1.1055,1.313813 4.09239,3.716423 5.45878,4.390962 0.67101,0.331252 2.3546,1.052651 3.74132,1.603108 2.87334,1.140575 4.03626,1.938557 4.03626,2.769639 0,1.483816 -2.78188,1.536114 -6.88343,0.129413 -3.64613,-1.25051 -5.01051,-2.041734 -6.89713,-3.999741 -4.207,-4.366189 -6.51341,-8.13061 -7.72823,-12.613674 -0.90437,-3.337426 -2.65045,-6.703422 -4.301167,-8.291552 -1.786153,-1.718433 -2.869039,-2.20753 -3.639788,-1.643942 -0.487261,0.356292 -0.502447,0.571646 -0.162244,2.30087 0.297137,1.510311 0.29711,2.345501 -1.22e-4,4.008723 -0.456144,2.552418 -0.195854,3.632355 1.51255,6.275591 1.453154,2.248309 6.686791,7.754548 8.571821,9.018286 0.75903,0.508864 2.032,1.552725 2.82882,2.319692 l 1.44877,1.394486 0.005,2.45149 c 0.003,1.348318 0.20879,3.412197 0.45751,4.586398 0.59438,2.806105 0.57327,3.271482 -0.19257,4.245085 -0.35463,0.450837 -0.59482,0.855583 -0.53375,0.899433 0.0611,0.04385 1.41491,0.611186 3.00855,1.260742 4.10813,1.674449 7.40237,3.221818 7.22872,3.395468 -0.0815,0.0815 -2.3933,-0.740352 -5.13726,-1.826428 -2.74394,-1.086076 -5.19529,-2.019849 -5.44744,-2.075052 -0.25214,-0.0552 -0.92427,0.231333 -1.49361,0.636743 -0.8225,0.58567 -1.38142,0.727999 -2.72048,0.692769 -0.92691,-0.0244 -1.83317,-0.19222 -2.01391,-0.372961 -0.18075,-0.180742 -0.32862,-0.933612 -0.32862,-1.673046 v -1.344423 l -2.28753,-0.612489 c -4.597646,-1.231032 -8.191086,-1.971467 -15.574701,-3.2092 l -0.782059,-0.131099 -0.295051,3.94042 c -0.162277,2.167233 -0.42798,4.070678 -0.590455,4.22988 -0.162475,0.159203 -2.094581,0.385924 -4.293568,0.50382 -4.374678,0.234547 -4.501291,0.192503 -4.453765,-1.478969 0.05377,-1.891251 1.169949,-3.268041 2.64943,-3.268041 1.436098,0 1.847291,-2.4727 0.64385,-3.871783 l -0.736098,-0.855765 h -8.337744 c -12.242053,0 -21.563542,1.07186 -25.632698,2.947455 -1.939548,0.893995 -2.215399,0.940889 -4.442202,0.755182 -2.201943,-0.183634 -2.861299,-0.077 -9.086058,1.469376 -6.342388,1.575604 -14.906745,4.063849 -19.936969,5.792391 -2.123208,0.72959 -3.0383945,0.94693 -2.7424401,0.65125 z M 104.41446,92.594201 c 0.99938,-2.216232 0.58975,-3.51657 -2.11036,-6.699094 -1.29155,-1.522295 -2.510511,-2.769154 -2.708815,-2.770792 -0.899896,-0.0074 -3.720733,-1.667601 -7.22312,-4.251069 -5.041689,-3.718905 -5.895097,-4.511843 -6.819717,-6.336491 l -0.779999,-1.539259 -1.237242,1.176961 c -1.565846,1.489556 -1.892996,2.351483 -1.89977,5.005278 -0.0058,2.280325 0.909763,5.547103 2.35284,8.394881 0.426925,0.842494 0.758811,2.02343 0.758811,2.700033 v 1.202597 l 2.211272,0.358839 c 3.654126,0.592984 10.259606,2.091992 13.34389,3.028184 1.59364,0.483729 3.04825,0.892695 3.23246,0.908821 0.18421,0.01613 0.5801,-0.514379 0.87975,-1.178889 z M 52.874265,89.346903 c 0.838758,-0.118936 1.353451,-0.274552 1.143761,-0.345816 -0.571258,-0.19414 -0.440403,-1.660985 0.218678,-2.451325 0.318802,-0.38229 0.98753,-0.837264 1.486064,-1.011054 1.090484,-0.380144 1.735858,-1.733443 1.670563,-3.503037 -0.04209,-1.140745 -1.943038,-7.728714 -2.473722,-8.572993 -0.163676,-0.260397 -0.659813,-0.112461 -1.76738,0.526987 l -1.539823,0.889014 -0.967528,3.895554 c -0.664284,2.674609 -1.030013,5.03202 -1.166899,7.521553 l -0.199371,3.625996 1.035321,-0.179314 c 0.569425,-0.09863 1.721577,-0.276629 2.560336,-0.395565 z m 21.36532,-2.102591 C 72.99495,85.613202 71.830719,82.954096 70.610978,78.95657 L 69.603507,75.65472 68.1805,75.488508 c -1.06924,-0.12489 -1.685977,-0.421096 -2.480812,-1.191479 -0.918963,-0.890695 -1.123245,-0.970962 -1.556343,-0.611522 -0.4324,0.35886 -0.466163,0.820391 -0.254507,3.479002 0.325481,4.088368 0.164351,8.217476 -0.370633,9.497876 -0.274079,0.655961 -0.780793,1.182738 -1.368003,1.422168 -0.784371,0.319826 0.176697,0.380296 6.044023,0.380296 h 6.976702 z"
   id="path29" /><path
   style="fill:#9bb4d3;fill-opacity:0.733333;stroke-width:0.305003"
   d="m 12.766358,99.620273 c 1.089104,-0.627614 11.981311,-4.088703 17.704419,-5.625727 7.528647,-2.021929 7.247854,-1.917786 7.364252,-2.73133 0.05667,-0.39608 0.700556,-1.052422 1.6191,-1.650417 1.016845,-0.661991 1.829774,-1.52684 2.439594,-2.595403 0.890366,-1.560152 0.914128,-1.707544 0.897554,-5.567618 -0.01632,-3.799201 -0.06958,-4.125377 -1.273598,-7.798575 -1.48426,-4.528149 -2.098091,-7.561624 -2.371899,-11.721623 -0.110413,-1.677517 -0.395019,-4.039317 -0.632458,-5.248444 -0.509524,-2.594689 -0.565415,-7.965776 -0.100903,-9.696707 0.180072,-0.671007 0.9246,-2.455275 1.654508,-3.96504 0.729908,-1.509765 1.797945,-3.774413 2.373417,-5.032551 1.065123,-2.328655 3.767981,-6.345692 5.507044,-8.184672 0.52901,-0.559405 2.229137,-1.968496 3.778061,-3.131313 1.944264,-1.459609 3.174515,-2.655658 3.973425,-3.86295 0.977102,-1.476579 1.298298,-1.748737 2.063825,-1.748737 0.731614,0 1.009176,0.206066 1.437882,1.067511 0.517782,1.040432 0.587561,1.072244 2.750798,1.254107 2.718432,0.228539 4.151776,0.929048 6.17304,3.016913 0.838759,0.866396 2.591441,2.469991 3.894847,3.563544 1.30341,1.093552 2.51006,2.250293 2.681447,2.570535 0.396998,0.741798 -0.444932,2.742097 -1.807204,4.293639 -0.528836,0.602309 -1.24121,1.727396 -1.583055,2.500193 -1.129316,2.553013 -3.440535,3.039805 -5.952651,1.253756 -1.645229,-1.169715 -2.370136,-1.287035 -3.928699,-0.635827 -1.323856,0.553143 -1.806265,1.453893 -1.542001,2.879215 0.440217,2.374332 2.980972,4.296254 7.085719,5.3599 2.313293,0.599435 3.74262,0.600274 5.879145,0.0035 5.525872,-1.543605 18.34755,-0.245328 23.218873,2.351061 2.278843,1.214611 6.138,5.202813 7.89302,8.15696 0.72345,1.217746 2.23281,4.502663 3.35414,7.299816 2.32966,5.811346 3.66599,8.572197 4.91882,10.162312 1.57711,2.001684 5.09099,4.38682 8.71277,5.914007 3.7419,1.577836 5.01973,2.553135 4.37033,3.335615 -0.85794,1.033756 -5.17453,0.325774 -9.3957,-1.541031 -2.71475,-1.200587 -7.15932,-5.914108 -9.61108,-10.192646 -0.43257,-0.754882 -1.29123,-2.882279 -1.90814,-4.727547 -1.9484,-5.828054 -4.31531,-9.473619 -6.825996,-10.513582 -1.60345,-0.664172 -1.713294,-0.326533 -1.705913,5.243695 l 0.0066,4.988622 1.067511,1.804139 c 1.121838,1.895951 7.385968,8.400612 11.163598,11.592258 l 2.16601,1.830019 0.20606,3.507536 c 0.11333,1.929144 0.28327,4.290243 0.37766,5.246888 0.12926,1.310196 0.052,1.910162 -0.3133,2.431638 -0.26669,0.380759 -0.4849,0.782482 -0.4849,0.892716 0,0.110237 1.59827,0.862268 3.5517,1.671182 1.95343,0.808914 3.42858,1.511794 3.2781,1.561955 -0.15049,0.05016 -1.84784,-0.513409 -3.77191,-1.252371 l -3.4983,-1.343572 -1.44717,0.733338 c -1.53862,0.779676 -2.77748,0.915933 -4.02283,0.442452 -0.64584,-0.245546 -0.77966,-0.516135 -0.85862,-1.736154 l -0.0935,-1.445272 -3.965034,-0.994517 c -4.20462,-1.054613 -14.417371,-3.025195 -14.62133,-2.821233 -0.06658,0.06658 -0.283147,1.836567 -0.481258,3.933307 -0.198112,2.096741 -0.490555,3.949272 -0.64987,4.11674 -0.164184,0.172583 -2.033938,0.304707 -4.316227,0.305003 l -4.02656,5.19e-4 -0.0955,-0.82834 c -0.161286,-1.398894 0.764585,-2.908086 2.02967,-3.308411 0.613728,-0.194205 1.287431,-0.570069 1.49712,-0.835248 0.577222,-0.72997 0.458124,-2.151699 -0.28034,-3.346558 l -0.661595,-1.070482 -9.63226,0.173614 c -13.238769,0.238616 -19.700958,0.99273 -24.310869,2.836983 -1.762516,0.705119 -2.484849,0.826309 -4.627108,0.776319 -2.139523,-0.04992 -3.506513,0.178738 -8.696589,1.454715 -3.386922,0.832674 -8.738207,2.278044 -11.891746,3.211933 -5.765579,1.707422 -6.546233,1.90119 -5.70391,1.41579 z m 91.668992,-6.875584 c 0.69582,-1.665341 0.557,-3.217953 -0.42506,-4.753882 -1.46743,-2.295047 -3.75396,-4.59987 -5.162223,-5.20352 -2.29549,-0.983961 -9.458786,-6.044832 -11.631879,-8.217927 -0.532205,-0.532206 -1.253718,-1.535105 -1.603361,-2.228667 -0.349646,-0.693562 -0.68953,-1.320264 -0.755298,-1.392674 -0.19106,-0.210352 -2.259356,1.886898 -2.68657,2.72418 -1.139782,2.233806 -0.765461,5.902347 1.069825,10.4849 0.663531,1.656776 1.291731,3.545847 1.396006,4.197931 0.140399,0.878012 0.357344,1.221217 0.836199,1.322865 0.355637,0.07549 2.156378,0.423997 4.001647,0.774461 3.085734,0.586055 10.331595,2.330837 12.505124,3.011198 1.62094,0.507388 1.98815,0.399887 2.45559,-0.718865 z M 53.25855,89.37277 c 0.824473,-0.14444 0.946425,-0.263626 0.714043,-0.697838 -0.437573,-0.817606 0.346694,-2.276341 1.581301,-2.941221 2.212071,-1.191281 2.385109,-2.844767 0.855357,-8.173637 -1.360528,-4.739394 -1.315396,-4.68909 -3.293094,-3.670392 l -1.58813,0.818033 -0.924522,3.828536 c -0.804294,3.330659 -1.69177,10.749432 -1.356441,11.339045 0.05957,0.104742 0.762804,0.07371 1.562751,-0.06895 0.799944,-0.142662 1.901874,-0.337769 2.448735,-0.433577 z m 21.910486,-1.012619 c -0.08743,-0.141457 -0.633626,-0.96255 -1.213772,-1.824644 -1.147095,-1.704574 -2.491476,-4.972231 -3.552328,-8.634287 l -0.674554,-2.328549 -1.222071,-0.163915 c -0.672602,-0.09021 -1.827066,-0.598386 -2.567632,-1.13022 -2.123679,-1.525113 -2.202458,-1.319217 -2.13849,5.589011 0.05834,6.301227 -0.0273,6.736033 -1.586229,8.052579 l -0.799609,0.675286 6.956822,0.01098 c 3.826252,0.006 6.885289,-0.104771 6.797863,-0.246232 z"
   id="path31" /></g>
</svg>
