<?xml version="1.0" encoding="UTF-8" standalone="no"?>
<svg
   xmlns:dc="http://purl.org/dc/elements/1.1/"
   xmlns:cc="http://creativecommons.org/ns#"
   xmlns:rdf="http://www.w3.org/1999/02/22-rdf-syntax-ns#"
   xmlns:svg="http://www.w3.org/2000/svg"
   xmlns="http://www.w3.org/2000/svg"
   xmlns:sodipodi="http://sodipodi.sourceforge.net/DTD/sodipodi-0.dtd"
   xmlns:inkscape="http://www.inkscape.org/namespaces/inkscape"
   inkscape:version="1.0.2 (e86c870879, 2021-01-15, custom)"
   sodipodi:docname="logo3.svg"
   xml:space="preserve"
   style="enable-background:new 0 0 128 128;"
   viewBox="0 0 128 128"
   y="0px"
   x="0px"
   id="Layer_1"
   version="1.1"><metadata
   id="metadata402"><rdf:RDF><cc:Work
       rdf:about=""><dc:format>image/svg+xml</dc:format><dc:type
         rdf:resource="http://purl.org/dc/dcmitype/StillImage" /><dc:title /></cc:Work></rdf:RDF></metadata><defs
   id="defs400" /><sodipodi:namedview
   inkscape:current-layer="g395"
   inkscape:window-maximized="0"
   inkscape:window-y="124"
   inkscape:window-x="243"
   inkscape:cy="121.70043"
   inkscape:cx="78.276045"
   inkscape:zoom="1.96875"
   showgrid="false"
   id="namedview398"
   inkscape:window-height="1198"
   inkscape:window-width="1258"
   inkscape:pageshadow="2"
   inkscape:pageopacity="0"
   guidetolerance="10"
   gridtolerance="10"
   objecttolerance="10"
   borderopacity="1"
   bordercolor="#666666"
   pagecolor="#ffffff"
   inkscape:document-rotation="0" />
<style
   id="style363"
   type="text/css">
	.st0{fill-rule:evenodd;clip-rule:evenodd;fill:url(#SVGID_1_);}
	
		.st1{fill-rule:evenodd;clip-rule:evenodd;fill:none;stroke:#9C9C9C;stroke-width:0.5;stroke-linecap:round;stroke-linejoin:round;stroke-miterlimit:3;}
	.st2{fill-rule:evenodd;clip-rule:evenodd;fill:#324A73;}
	.st3{fill:#CECECD;}
	.st4{fill-rule:evenodd;clip-rule:evenodd;fill:#E2E2E1;}
	.st5{fill-rule:evenodd;clip-rule:evenodd;fill:#33446B;}
</style>
<symbol
   viewBox="-156.5 -178.6 312.9 357.3"
   id="final_x5F_logo_x5F_1.ai_x2F_Illustrator_Sym">
	<g
   id="Layer_1_2_">
		<g
   id="g382">
			<g
   id="g380">
				<linearGradient
   y2="0"
   x2="156.2065"
   y1="0"
   x1="-156.2067"
   gradientUnits="userSpaceOnUse"
   id="SVGID_1_">
					<stop
   id="stop365"
   style="stop-color:#436D9D"
   offset="0" />
					<stop
   id="stop367"
   style="stop-color:#33446B"
   offset="0.1961" />
					<stop
   id="stop369"
   style="stop-color:#6E9DCD"
   offset="0.4745" />
					<stop
   id="stop371"
   style="stop-color:#33446B"
   offset="0.7137" />
					<stop
   id="stop373"
   style="stop-color:#6E9DCD"
   offset="1" />
				</linearGradient>
				<path
   id="path376"
   class="st0" />
				<path
   id="path378"
   class="st1" />
			</g>
		</g>
	</g>
</symbol>
<g
   id="g395">
	<path
   id="path386"
   d="M49.7,88.2h1.7c0.2,0,0.4,0.1,0.4,0.2c0.1,0.1,0.1,0.3,0.2,0.5l1,24.4c0,0.3-0.1,0.4-0.2,0.5   c-0.1,0.1-0.3,0.2-0.5,0.2h-2.1c-0.3,0-0.4-0.1-0.5-0.2c-0.1-0.1-0.1-0.3-0.2-0.6L48.9,95h-0.1l-7.2,18.5c-0.1,0.2-0.2,0.3-0.3,0.4   c-0.1,0.1-0.2,0.1-0.4,0.1h-1.3c-0.2,0-0.4,0-0.5-0.1c-0.1-0.1-0.2-0.2-0.3-0.4L31.1,95h0l-0.4,18.3c0,0.3-0.1,0.4-0.2,0.5   c-0.1,0.1-0.3,0.2-0.6,0.2H28c-0.2,0-0.4,0-0.5-0.1c-0.1-0.1-0.1-0.3-0.1-0.5L28.2,89c0-0.3,0.1-0.5,0.2-0.6   c0.1-0.1,0.2-0.2,0.4-0.2h1.6c0.3,0,0.5,0,0.6,0.1c0.1,0.1,0.2,0.2,0.3,0.4l9.1,20.3h0l8.4-20.3c0.1-0.2,0.2-0.4,0.3-0.5   C49.3,88.3,49.5,88.2,49.7,88.2z M69.7,95.2c-0.2-0.6-0.4-1.2-0.5-1.6c-0.1-0.4-0.2-0.8-0.3-1h0c-0.1,0.3-0.2,0.6-0.4,1.1   c-0.1,0.4-0.3,1-0.6,1.7l-3.1,8.5h7.9L69.7,95.2z M67.9,88.2h2c0.4,0,0.6,0.2,0.7,0.5l9.2,24.5c0.1,0.2,0.1,0.4,0,0.5   c0,0.1-0.2,0.2-0.5,0.2H77c-0.3,0-0.5,0-0.7-0.1c-0.1-0.1-0.2-0.3-0.3-0.5l-2.5-6.9h-9.7l-2.6,7c-0.1,0.2-0.2,0.4-0.3,0.5   c-0.1,0.1-0.3,0.1-0.5,0.1h-2.2c-0.3,0-0.4-0.1-0.4-0.3c0-0.1,0-0.3,0.1-0.5l9.4-24.5c0-0.2,0.1-0.3,0.2-0.4   C67.6,88.3,67.8,88.2,67.9,88.2z M13.6,87.8c1.1,0,2.1,0.1,3.1,0.3c1,0.2,1.9,0.5,2.9,0.9c0.2,0.1,0.3,0.2,0.4,0.3   c0.1,0.1,0.2,0.2,0.2,0.4c0,0.1,0,0.1,0,0.2c0,0.1,0,0.1,0,0.2l-0.6,1.5c-0.1,0.1-0.1,0.2-0.2,0.3c-0.1,0.1-0.2,0.1-0.3,0.1   c-0.1,0-0.3,0-0.4-0.1c-0.8-0.3-1.6-0.6-2.4-0.8c-0.8-0.2-1.6-0.3-2.4-0.3c-0.7,0-1.4,0.1-2.1,0.3c-0.7,0.2-1.2,0.6-1.7,1.1   c-0.5,0.5-0.7,1.2-0.7,2c0,1,0.3,1.7,0.9,2.4c0.6,0.6,1.2,1.1,2.1,1.5l4,2.1c1.5,0.8,2.7,1.7,3.6,2.8c0.9,1.1,1.4,2.5,1.4,4.2   c0,1.6-0.4,3-1.2,4.1c-0.8,1.1-1.8,1.9-3.2,2.5c-1.3,0.6-2.7,0.8-4.3,0.8c-1,0-2-0.1-3.1-0.3c-1.1-0.2-2.1-0.4-3.2-0.8   c-0.2-0.1-0.4-0.2-0.5-0.4c-0.1-0.2-0.1-0.4,0-0.6l0.5-1.7c0.1-0.2,0.2-0.4,0.4-0.4c0.2,0,0.4,0,0.6,0.1c0.8,0.3,1.7,0.6,2.6,0.8   c0.9,0.2,1.8,0.3,2.7,0.3c0.9,0,1.7-0.1,2.5-0.4c0.8-0.3,1.4-0.7,2-1.3c0.5-0.6,0.8-1.4,0.8-2.4c0-1-0.3-1.9-1-2.6   c-0.6-0.7-1.4-1.2-2.3-1.7l-4.8-2.5c-1.2-0.7-2.2-1.5-3-2.5c-0.7-1-1.1-2.2-1.1-3.5c0-1.4,0.4-2.6,1.2-3.6c0.8-1,1.7-1.7,2.9-2.2   C11,88,12.3,87.8,13.6,87.8z M88.3,90.9v10h2.9c1.1,0,2.1-0.2,2.9-0.6c0.9-0.4,1.5-0.9,2-1.7c0.5-0.8,0.7-1.7,0.7-2.8   c0-1.8-0.6-3.1-1.6-3.8c-1.1-0.7-2.6-1.1-4.5-1.1H88.3z M85.6,88.2h5.4c1.7,0,3.2,0.2,4.6,0.6c1.4,0.4,2.5,1.1,3.3,2.1   c0.5,0.6,0.9,1.3,1.1,2.2c0.3,0.8,0.4,1.7,0.4,2.7c0,1.2-0.2,2.3-0.7,3.2c-0.5,1-1.1,1.8-1.9,2.4c-0.8,0.7-1.7,1.2-2.6,1.5l0,0.1   l6.1,10.2c0.1,0.2,0.1,0.4,0.1,0.5c0,0.2-0.2,0.3-0.5,0.3h-2.2c-0.3,0-0.5-0.1-0.7-0.2c-0.2-0.1-0.3-0.3-0.5-0.5l-5.6-9.8h-3.6v9.7   c0,0.2-0.1,0.4-0.2,0.6c-0.1,0.1-0.3,0.2-0.5,0.2h-2.1c-0.2,0-0.4-0.1-0.5-0.2c-0.1-0.1-0.2-0.3-0.2-0.6V89.1   c0-0.3,0.1-0.5,0.2-0.6C85.1,88.3,85.3,88.2,85.6,88.2z M122.9,88.2c0.2,0,0.4,0.1,0.5,0.2c0.1,0.1,0.1,0.2,0.1,0.4l-0.2,1.5   c0,0.3-0.1,0.4-0.3,0.5c-0.1,0.1-0.4,0.1-0.6,0.1h-7v22.3c0,0.3,0,0.4-0.1,0.6c-0.1,0.1-0.3,0.2-0.5,0.2h-2.1   c-0.2,0-0.4-0.1-0.5-0.2c-0.1-0.1-0.2-0.3-0.2-0.6V91h-7.2c-0.2,0-0.4,0-0.5-0.1c-0.1-0.1-0.1-0.3-0.1-0.5v-1.6   c0-0.2,0-0.4,0.1-0.5c0.1-0.1,0.2-0.1,0.4-0.1H122.9z"
   class="st2" />
	
	
	
		
	<path
   id="path393"
   d="M82.8,45.3c-0.5-0.1-0.6,0.3-0.4,1.2c0.2,0.9,0.2,1.8-0.1,2.7c-0.3,1,0.2,2.1,1.3,3.6c0.6,0.7,1.2,1.4,1.8,2   l0.1,0.1l1.9,2c0.2,0.1,0.3,0.2,0.5,0.3c0.1,0.1,0.5,0.3,1,0.8c0.5,0.4,0.9,0.9,1.3,1.4c-0.1,1.3,0,2.5,0.2,3.5   c0.1,0.5,0.2,0.9,0.3,1.2c0.1,0.7-0.3,1.4-1.3,2.2C89,66.7,88.5,67,87.9,67l-0.8,0c-0.6,0.1-0.9-0.2-1-0.8l0.1-1l0.4-0.9   c0.3-0.4,0.5-0.9,0.5-1.6l-0.1-0.8l-2.5-2.9l-0.7-0.2c-0.9-0.3-2.4-1.3-4.4-2.9c-1-0.6-1.8-1.2-2.3-1.9l-0.9-1.8   c0,0.5-0.4,0.9-1.1,1.3c-0.6,1.1-0.6,2.5-0.2,4.1c0.3,0.8,0.6,1.6,0.9,2.2c0.2,0.4,0.3,0.7,0.5,1c0.2,0.3,0.2,0.6,0.1,1   c-0.1,0.4-0.1,1.4-0.2,3.1c-0.1,0.9-0.2,1.7-0.2,2.3c0,0.1,0,0.2,0,0.2c-0.1,0-0.2,0.1-0.3,0.2c0.1,0,0.1,0,0.3,0l-0.3,0l-0.1,0   l-4,0.3c-0.5-0.1-0.8-0.4-0.7-1l0.2-1c0.2-0.4,0.5-0.6,0.9-0.7c0.2-0.1,0.4-0.1,0.6-0.1c0.6-0.2,0.7-0.6,0.5-1.2   c0.1-0.4-0.1-0.7-0.5-1.1l-0.6-0.5c-1-0.3-1.9-1.6-2.9-4.1l-1.1-3.5c-0.7,0.2-1.4,0.1-2-0.4l-0.7-0.7l-0.5,0.4l0.3,2.7   c0.1,0.6,0.1,1.7,0,3.3c0,0.3-0.2,0.8-0.6,1.6c-0.2,0-0.4,0-0.7,0.1l-0.4,0.2c-0.8,0.5-2.1,0.5-3.9,0.2c-0.3-0.3-0.3-0.8,0-1.2   l0.5-0.6c0.7-0.1,1-0.4,1.1-0.7c0.2-0.3,0.3-0.8,0.3-1.6l-0.2-1.1c-0.2-0.4-0.4-0.8-0.5-1.2L60.5,55c0-0.2-0.1-0.5-0.3-1L60,53.4   l-1.7,1c-0.3,1-0.7,2.4-1.1,4L57,62.1c0,0.2-0.1,0.5-0.4,0.9c-0.2,0.3-0.4,0.5-0.5,0.5c-0.4,0-0.7,0.1-1.2,0.2l-0.6,0.2   c-0.5,0.4-1.1,0.6-1.6,0.7c-0.2,0-0.3,0-0.5,0.1l0.2,0c-1,0.1-1.6-0.1-1.9-0.5l0-0.6c-0.1-0.5,0-0.9,0.3-1.2l0.6-0.3   c0.6-0.1,1-0.4,1.1-1c0.5-0.3,0.7-1.1,0.7-2.6c0.1-1.1,0-2.4-0.3-3.7l-0.6-1.6c-0.6-1.5-0.9-3.1-1-4.8v-2.1   c-0.1-0.6-0.2-1.4-0.5-2.2l-0.3-1.2c-0.2-1.9,0-3.7,0.8-5.4l1.2-1.9c0-0.8,0.3-1.5,0.8-2.2l-0.3,0.4c1.3-2.2,2.6-3.9,4-5.1l1.9-1.3   c0.5-0.2,1-0.9,1.5-1.9c0.2-0.4,0.4-0.6,0.7-0.6c0.1,0,0.2,0,0.4,0c0.4,0,0.7,0.2,0.8,0.7c0.1,0.3,0.2,0.5,0.2,0.8   c1.1-0.4,2.2-0.2,3.3,0.4c0.6,0.3,1,0.7,1.4,1.1c0.5,0.7,0.9,1.1,1.2,1.4c0.6,0.4,1.3,1,2.2,1.8c0.2,0.8,0.1,1.5-0.4,2.1   c-0.4,0.6-0.8,1-1.2,1.2c-0.1,0.4-0.2,0.9-0.5,1.5c-0.5,0.5-1,0.7-1.6,0.6c-0.5,0.1-0.9-0.1-1.3-0.4l-0.4-0.5   c-0.4-0.3-0.8-0.4-1.5-0.2l-0.9,0.4c-0.3,0.4-0.4,0.9-0.2,1.5c0.1,0.3,0.2,0.6,0.4,0.8c0.5,0.6,1.3,1.1,2.4,1.4   c0.5,0.3,1.1,0.5,2,0.5c0.5,0,0.9,0,1.2,0c1.3-0.5,3.1-0.8,5.4-0.7c3,0.3,5.4,0.6,7,1.2c0.9,0.3,1.8,0.8,2.5,1.4v0   c1.1,1.1,2,2.1,2.7,3.1c0.6,0.9,1.3,2.2,1.8,3.7c0.6,1.5,0.9,2.4,1,2.6c0.1,0.2,0.2,0.5,0.3,0.7c0.2,0.5,0.4,0.9,0.7,1.4   c0.1,0.1,0.2,0.3,0.2,0.4c0.1,0.2,0.3,0.5,0.5,0.8c0,0,0,0.1,0.1,0.1c0.2,0.3,0.4,0.6,0.6,0.8c0,0,0.1,0.1,0.1,0.1   c0,0,0.1,0.1,0.1,0.1c0,0,0.1,0.1,0.1,0.1c0.2,0.1,0.3,0.3,0.5,0.4c0.1,0.1,0.4,0.3,0.8,0.7c0.4,0.3,1.1,0.7,2.1,1.1   c1,0.4,1.8,0.7,2.5,1.1c0.7,0.4,0.8,0.8,0.3,1.2c-0.5,0.4-1.6,0.4-3.4-0.2l-2-0.7v0c-0.2-0.1-0.4-0.2-0.6-0.3   c-0.1-0.1-0.2-0.1-0.4-0.2c-0.1,0-0.1-0.1-0.2-0.1c-0.2-0.1-0.3-0.3-0.5-0.4c-0.1-0.1-0.2-0.2-0.3-0.3c0,0,0,0,0,0   c-0.1-0.2-0.3-0.3-0.4-0.5c-0.2-0.2-0.3-0.3-0.4-0.5c-0.1-0.1-0.2-0.2-0.3-0.3c-0.1-0.2-0.3-0.4-0.4-0.5c-0.1-0.2-0.3-0.4-0.4-0.5   c-0.1-0.1-0.1-0.2-0.2-0.3c-0.1-0.2-0.2-0.4-0.4-0.5c-0.2-0.4-0.5-0.8-0.7-1.1c-0.1-0.1-0.2-0.3-0.2-0.4c-0.2-0.5-0.5-0.9-0.6-1.4   c-0.1-0.2-0.1-0.5-0.2-0.7c0,0,0,0,0-0.1c-0.5-1.9-1.2-3.4-1.9-4.2C83.9,45.8,83.3,45.4,82.8,45.3z"
   class="st5" />
<path
   class="cls-1"
   d="M -0.04356698,79.232384 C 4.8086752,76.693006 9.9018507,74.543359 15.062171,72.528285 c 2.589048,-0.990935 5.207718,-1.922448 7.848112,-2.813765 2.640394,-0.891316 5.312385,-1.70224 8.0061,-2.471219 1.340934,-0.393227 2.69964,-0.746259 4.052424,-1.116767 1.362656,-0.33905 2.725312,-0.68509 4.099818,-0.992682 2.739137,-0.643146 5.507895,-1.198908 8.294429,-1.710978 a 120.11718,106.29912 0 0 1 16.944337,-1.903224 95.101576,84.161261 0 0 1 17.126027,0.685091 c 2.824054,0.375751 5.634287,0.826653 8.414898,1.38591 0.69515,0.139814 1.382403,0.295358 2.077557,0.443911 0.69515,0.148553 1.382403,0.304096 2.067681,0.478864 1.382407,0.330311 2.731239,0.711305 4.089947,1.081814 l 2.022259,0.595958 c 0.6754,0.197488 1.34093,0.421191 2.01041,0.629165 0.66948,0.207974 1.33304,0.433424 1.99462,0.657128 0.66158,0.223703 1.32316,0.457892 1.97486,0.699071 2.62065,0.962972 5.20377,1.999346 7.73159,3.126599 1.25799,0.573239 2.50808,1.16046 3.75225,1.772147 0.61813,0.304097 1.23231,0.611688 1.84255,0.928019 0.61023,0.31633 1.20861,0.644893 1.80107,0.971709 1.19875,0.662371 2.38761,1.33348 3.55476,2.039542 1.16714,0.706063 2.29874,1.447079 3.40269,2.226545 l -0.12639,0.155543 a 83.878419,74.229199 0 0 0 -7.18456,-3.844895 q -3.69102,-1.777391 -7.52028,-3.320592 A 119.88415,106.0929 0 0 0 97.597682,67.045813 Q 93.563033,66.012935 89.449391,65.236965 C 86.70828,64.726643 83.943471,64.326424 81.168786,63.99786 l -2.087432,-0.206226 c -0.347575,-0.03146 -0.695154,-0.0734 -1.042729,-0.09612 l -1.046677,-0.07515 C 76.29482,63.574919 75.597692,63.512005 74.89859,63.480547 l -2.097304,-0.08913 c -0.699102,-0.0402 -1.398205,-0.03321 -2.099281,-0.04719 l -1.048655,-0.01398 c -0.34955,0 -0.699103,-0.01049 -1.048652,0 -1.400179,0.02272 -2.800358,0.03146 -4.196588,0.110103 -2.798384,0.09962 -5.586892,0.33905 -8.3675,0.627417 -1.382407,0.160787 -2.778634,0.311087 -4.16104,0.515566 -0.691202,0.09962 -1.382407,0.174768 -2.073608,0.295358 l -2.069656,0.332059 c -2.752964,0.464883 -5.496049,0.97171 -8.217413,1.572912 -1.364631,0.279629 -2.715438,0.608192 -4.072171,0.915784 -1.356731,0.307591 -2.707539,0.63965 -4.046497,1.006663 -2.69174,0.699072 -5.361757,1.448827 -8.015975,2.247516 -2.654218,0.79869 -5.292636,1.639324 -7.899458,2.532388 C 10.249427,75.2669 5.0772568,77.203329 0.05517624,79.403658 Z"
   id="path6"
   style="fill:#33446b;stroke-width:0.18578" /></g>
</svg>
