<?xml version="1.0" encoding="UTF-8" standalone="no"?>
<svg
   xmlns:dc="http://purl.org/dc/elements/1.1/"
   xmlns:cc="http://creativecommons.org/ns#"
   xmlns:rdf="http://www.w3.org/1999/02/22-rdf-syntax-ns#"
   xmlns:svg="http://www.w3.org/2000/svg"
   xmlns="http://www.w3.org/2000/svg"
   xmlns:sodipodi="http://sodipodi.sourceforge.net/DTD/sodipodi-0.dtd"
   xmlns:inkscape="http://www.inkscape.org/namespaces/inkscape"
   version="1.1"
   id="Layer_1"
   x="0px"
   y="0px"
   viewBox="0 0 127.9 69.494851"
   xml:space="preserve"
   sodipodi:docname="logo2.svg"
   width="127.9"
   height="69.49485"
   inkscape:version="1.0.2 (e86c870879, 2021-01-15, custom)"><metadata
   id="metadata90"><rdf:RDF><cc:Work
       rdf:about=""><dc:format>image/svg+xml</dc:format><dc:type
         rdf:resource="http://purl.org/dc/dcmitype/StillImage" /><dc:title /></cc:Work></rdf:RDF></metadata><defs
   id="defs88"><inkscape:perspective
     sodipodi:type="inkscape:persp3d"
     inkscape:vp_x="0 : 5.4948505 : 1"
     inkscape:vp_y="0 : 1000 : 0"
     inkscape:vp_z="128 : 5.4948505 : 1"
     inkscape:persp3d-origin="63.999999 : -15.838483 : 1"
     id="perspective100" /></defs><sodipodi:namedview
   inkscape:document-rotation="0"
   pagecolor="#ffffff"
   bordercolor="#666666"
   borderopacity="1"
   objecttolerance="10"
   gridtolerance="10"
   guidetolerance="10"
   inkscape:pageopacity="0"
   inkscape:pageshadow="2"
   inkscape:window-width="1901"
   inkscape:window-height="1198"
   id="namedview86"
   showgrid="false"
   inkscape:zoom="6.5573106"
   inkscape:cx="63.216309"
   inkscape:cy="46.411899"
   inkscape:window-x="616"
   inkscape:window-y="127"
   inkscape:window-maximized="0"
   inkscape:current-layer="g83" />
<style
   type="text/css"
   id="style51">
	.st0{fill-rule:evenodd;clip-rule:evenodd;fill:url(#SVGID_1_);}
	
		.st1{fill-rule:evenodd;clip-rule:evenodd;fill:none;stroke:#9C9C9C;stroke-width:0.5;stroke-linecap:round;stroke-linejoin:round;stroke-miterlimit:3;}
	.st2{fill-rule:evenodd;clip-rule:evenodd;fill:#324A73;}
	.st3{fill:#CECECD;}
	.st4{fill-rule:evenodd;clip-rule:evenodd;fill:#E2E2E1;}
	.st5{fill-rule:evenodd;clip-rule:evenodd;fill:#33446B;}
</style>
<symbol
   id="final_x5F_logo_x5F_1.ai_x2F_Illustrator_Sym"
   viewBox="-156.5 -178.6 312.9 357.3"
   transform="translate(-0.1,-13.628776)">
	<g
   id="Layer_1_2_">
		<g
   id="g70">
			<g
   id="g68">
				<linearGradient
   id="SVGID_1_"
   gradientUnits="userSpaceOnUse"
   x1="-156.2067"
   y1="0"
   x2="156.2065"
   y2="0">
					<stop
   offset="0"
   style="stop-color:#436D9D"
   id="stop53" />
					<stop
   offset="0.1961"
   style="stop-color:#33446B"
   id="stop55" />
					<stop
   offset="0.4745"
   style="stop-color:#6E9DCD"
   id="stop57" />
					<stop
   offset="0.7137"
   style="stop-color:#33446B"
   id="stop59" />
					<stop
   offset="1"
   style="stop-color:#6E9DCD"
   id="stop61" />
				</linearGradient>
				<path
   class="st0"
   id="path64"
   style="fill:url(#SVGID_1_)" />
				<path
   class="st1"
   id="path66" />
			</g>
		</g>
	</g>
</symbol>
<g
   id="g83"
   transform="translate(-0.1,-13.628776)"><path
   class="cls-1"
   d="m 0.4099868,77.21454 c 4.8241213,-2.22594 9.8877782,-4.110254 15.0181942,-5.876605 2.574041,-0.868622 5.177533,-1.685158 7.802626,-2.466458 2.62509,-0.781301 5.281596,-1.492131 7.9597,-2.166194 1.333161,-0.344691 2.683992,-0.654148 4.028934,-0.978924 1.35476,-0.2972 2.70952,-0.600529 4.076059,-0.870154 2.723263,-0.563761 5.475976,-1.050926 8.246362,-1.49979 a 119.42103,93.178501 0 0 1 16.846134,-1.668306 94.550406,73.773144 0 0 1 17.02677,0.600529 c 2.807688,0.329371 5.601633,0.724618 8.366128,1.214845 0.691123,0.122557 1.374393,0.258902 2.065516,0.389118 0.691124,0.130217 1.374393,0.266562 2.055699,0.419758 1.374395,0.28954 2.71541,0.623508 4.066242,0.948284 l 2.01054,0.522399 c 0.671489,0.173112 1.333169,0.369203 1.998769,0.551506 0.66559,0.182304 1.3253,0.379927 1.98304,0.576018 0.65775,0.196091 1.3155,0.401373 1.96342,0.612785 2.60546,0.84411 5.17362,1.752563 7.6868,2.740678 1.25069,0.502484 2.49354,1.017223 3.7305,1.55341 0.61453,0.266561 1.22516,0.536186 1.83186,0.813472 0.60669,0.277284 1.20161,0.565293 1.79064,0.85177 1.1918,0.580614 2.37378,1.168886 3.53415,1.787799 1.16039,0.618913 2.28543,1.268464 3.38297,1.951719 l -0.12566,0.136345 a 83.392295,65.067005 0 0 0 -7.14291,-3.370316 q -3.66963,-1.558005 -7.47671,-2.910727 A 119.18935,92.997731 0 0 0 97.48535,66.532172 q -4.011266,-0.90539 -8.101067,-1.585581 C 86.659057,64.499258 83.910271,64.148439 81.151668,63.86043 l -2.075335,-0.180771 c -0.345562,-0.02758 -0.691123,-0.06434 -1.036685,-0.08426 l -1.040612,-0.06587 c -0.693087,-0.03983 -1.386173,-0.09498 -2.081224,-0.12256 l -2.085151,-0.07813 c -0.69505,-0.03524 -1.390101,-0.02911 -2.087116,-0.04136 l -1.042573,-0.01226 c -0.347527,0 -0.695051,-0.0092 -1.042576,0 -1.392066,0.01991 -2.784129,0.02758 -4.172267,0.09651 -2.782164,0.08732 -5.554512,0.297201 -8.319005,0.549974 -1.374394,0.14094 -2.762533,0.272689 -4.136924,0.451929 -0.687197,0.08732 -1.374392,0.153196 -2.061592,0.258901 l -2.057662,0.291073 c -2.737006,0.407502 -5.464195,0.851771 -8.169785,1.378766 -1.356722,0.245114 -2.699701,0.533122 -4.04857,0.802747 -1.348871,0.269626 -2.691848,0.560698 -4.023046,0.88241 -2.67614,0.612785 -5.330684,1.269996 -7.969518,1.970103 -2.638836,0.700106 -5.261962,1.436979 -7.853676,2.219812 -5.205025,1.561071 -10.3472198,3.258485 -15.34019426,5.187224 z"
   id="path6"
   style="fill:#33446b;stroke-width:0.173432" />
	
	
	
	
		
	<path
   class="st5"
   d="m 82.8,45.3 c -0.5,-0.1 -0.6,0.3 -0.4,1.2 0.2,0.9 0.2,1.8 -0.1,2.7 -0.3,1 0.2,2.1 1.3,3.6 0.6,0.7 1.2,1.4 1.8,2 l 0.1,0.1 1.9,2 c 0.2,0.1 0.3,0.2 0.5,0.3 0.1,0.1 0.5,0.3 1,0.8 0.5,0.4 0.9,0.9 1.3,1.4 -0.1,1.3 0,2.5 0.2,3.5 0.1,0.5 0.2,0.9 0.3,1.2 0.1,0.7 -0.3,1.4 -1.3,2.2 C 89,66.7 88.5,67 87.9,67 h -0.8 c -0.6,0.1 -0.9,-0.2 -1,-0.8 l 0.1,-1 0.4,-0.9 c 0.3,-0.4 0.5,-0.9 0.5,-1.6 L 87,61.9 84.5,59 83.8,58.8 c -0.9,-0.3 -2.4,-1.3 -4.4,-2.9 -1,-0.6 -1.8,-1.2 -2.3,-1.9 l -0.9,-1.8 c 0,0.5 -0.4,0.9 -1.1,1.3 -0.6,1.1 -0.6,2.5 -0.2,4.1 0.3,0.8 0.6,1.6 0.9,2.2 0.2,0.4 0.3,0.7 0.5,1 0.2,0.3 0.2,0.6 0.1,1 -0.1,0.4 -0.1,1.4 -0.2,3.1 -0.1,0.9 -0.2,1.7 -0.2,2.3 0,0.1 0,0.2 0,0.2 -0.1,0 -0.2,0.1 -0.3,0.2 0.1,0 0.1,0 0.3,0 h -0.3 -0.1 l -4,0.3 c -0.5,-0.1 -0.8,-0.4 -0.7,-1 l 0.2,-1 c 0.2,-0.4 0.5,-0.6 0.9,-0.7 0.2,-0.1 0.4,-0.1 0.6,-0.1 0.6,-0.2 0.7,-0.6 0.5,-1.2 0.1,-0.4 -0.1,-0.7 -0.5,-1.1 L 72,62.3 C 71,62 70.1,60.7 69.1,58.2 L 68,54.7 c -0.7,0.2 -1.4,0.1 -2,-0.4 l -0.7,-0.7 -0.5,0.4 0.3,2.7 c 0.1,0.6 0.1,1.7 0,3.3 0,0.3 -0.2,0.8 -0.6,1.6 -0.2,0 -0.4,0 -0.7,0.1 l -0.4,0.2 c -0.8,0.5 -2.1,0.5 -3.9,0.2 -0.3,-0.3 -0.3,-0.8 0,-1.2 L 60,60.3 c 0.7,-0.1 1,-0.4 1.1,-0.7 0.2,-0.3 0.3,-0.8 0.3,-1.6 L 61.2,56.9 C 61,56.5 60.8,56.1 60.7,55.7 L 60.5,55 c 0,-0.2 -0.1,-0.5 -0.3,-1 l -0.2,-0.6 -1.7,1 c -0.3,1 -0.7,2.4 -1.1,4 L 57,62.1 c 0,0.2 -0.1,0.5 -0.4,0.9 -0.2,0.3 -0.4,0.5 -0.5,0.5 -0.4,0 -0.7,0.1 -1.2,0.2 l -0.6,0.2 c -0.5,0.4 -1.1,0.6 -1.6,0.7 -0.2,0 -0.3,0 -0.5,0.1 h 0.2 c -1,0.1 -1.6,-0.1 -1.9,-0.5 v -0.6 c -0.1,-0.5 0,-0.9 0.3,-1.2 l 0.6,-0.3 c 0.6,-0.1 1,-0.4 1.1,-1 0.5,-0.3 0.7,-1.1 0.7,-2.6 0.1,-1.1 0,-2.4 -0.3,-3.7 l -0.6,-1.6 c -0.6,-1.5 -0.9,-3.1 -1,-4.8 v -2.1 c -0.1,-0.6 -0.2,-1.4 -0.5,-2.2 l -0.3,-1.2 c -0.2,-1.9 0,-3.7 0.8,-5.4 l 1.2,-1.9 c 0,-0.8 0.3,-1.5 0.8,-2.2 L 53,33.8 c 1.3,-2.2 2.6,-3.9 4,-5.1 l 1.9,-1.3 c 0.5,-0.2 1,-0.9 1.5,-1.9 0.2,-0.4 0.4,-0.6 0.7,-0.6 0.1,0 0.2,0 0.4,0 0.4,0 0.7,0.2 0.8,0.7 0.1,0.3 0.2,0.5 0.2,0.8 1.1,-0.4 2.2,-0.2 3.3,0.4 0.6,0.3 1,0.7 1.4,1.1 0.5,0.7 0.9,1.1 1.2,1.4 0.6,0.4 1.3,1 2.2,1.8 0.2,0.8 0.1,1.5 -0.4,2.1 -0.4,0.6 -0.8,1 -1.2,1.2 -0.1,0.4 -0.2,0.9 -0.5,1.5 -0.5,0.5 -1,0.7 -1.6,0.6 -0.5,0.1 -0.9,-0.1 -1.3,-0.4 l -0.4,-0.5 c -0.4,-0.3 -0.8,-0.4 -1.5,-0.2 l -0.9,0.4 c -0.3,0.4 -0.4,0.9 -0.2,1.5 0.1,0.3 0.2,0.6 0.4,0.8 0.5,0.6 1.3,1.1 2.4,1.4 0.5,0.3 1.1,0.5 2,0.5 0.5,0 0.9,0 1.2,0 1.3,-0.5 3.1,-0.8 5.4,-0.7 3,0.3 5.4,0.6 7,1.2 0.9,0.3 1.8,0.8 2.5,1.4 v 0 c 1.1,1.1 2,2.1 2.7,3.1 0.6,0.9 1.3,2.2 1.8,3.7 0.6,1.5 0.9,2.4 1,2.6 0.1,0.2 0.2,0.5 0.3,0.7 0.2,0.5 0.4,0.9 0.7,1.4 0.1,0.1 0.2,0.3 0.2,0.4 0.1,0.2 0.3,0.5 0.5,0.8 0,0 0,0.1 0.1,0.1 0.2,0.3 0.4,0.6 0.6,0.8 0,0 0.1,0.1 0.1,0.1 0,0 0.1,0.1 0.1,0.1 0,0 0.1,0.1 0.1,0.1 0.2,0.1 0.3,0.3 0.5,0.4 0.1,0.1 0.4,0.3 0.8,0.7 0.4,0.3 1.1,0.7 2.1,1.1 1,0.4 1.8,0.7 2.5,1.1 0.7,0.4 0.8,0.8 0.3,1.2 -0.5,0.4 -1.6,0.4 -3.4,-0.2 l -2,-0.7 v 0 C 92.3,59.3 92.1,59.2 91.9,59.1 91.8,59 91.7,59 91.5,58.9 c -0.1,0 -0.1,-0.1 -0.2,-0.1 -0.2,-0.1 -0.3,-0.3 -0.5,-0.4 -0.1,-0.1 -0.2,-0.2 -0.3,-0.3 0,0 0,0 0,0 C 90.4,57.9 90.2,57.8 90.1,57.6 89.9,57.4 89.8,57.3 89.7,57.1 89.6,57 89.5,56.9 89.4,56.8 89.3,56.6 89.1,56.4 89,56.3 88.9,56.1 88.7,55.9 88.6,55.8 88.5,55.7 88.5,55.6 88.4,55.5 88.3,55.3 88.2,55.1 88,55 87.8,54.6 87.5,54.2 87.3,53.9 87.2,53.8 87.1,53.6 87.1,53.5 86.9,53 86.6,52.6 86.5,52.1 c -0.1,-0.2 -0.1,-0.5 -0.2,-0.7 0,0 0,0 0,-0.1 -0.5,-1.9 -1.2,-3.4 -1.9,-4.2 -0.5,-1.3 -1.1,-1.7 -1.6,-1.8 z"
   id="path81" />
</g>
</svg>
