<?xml version="1.0" encoding="utf-8"?>
<!-- Generator: Adobe Illustrator 13.0.0, SVG Export Plug-In . SVG Version: 6.00 Build 14948)  -->
<!DOCTYPE svg PUBLIC "-//W3C//DTD SVG 1.1//EN" "http://www.w3.org/Graphics/SVG/1.1/DTD/svg11.dtd">
<svg version="1.1" id="Layer_1" xmlns="http://www.w3.org/2000/svg" xmlns:xlink="http://www.w3.org/1999/xlink" x="0px" y="0px"
	 width="1024px" height="1024px" viewBox="0 0 1024 1024" enable-background="new 0 0 1024 1024" xml:space="preserve">
<rect fill="none" width="1024" height="1024"/>
<g>
	<g>
		
			<radialGradient id="SVGID_1_" cx="361.418" cy="434.1748" r="412.453" gradientTransform="matrix(1 0 0 0.9976 0 1.2147)" gradientUnits="userSpaceOnUse">
			<stop  offset="0" style="stop-color:#A6D6F3"/>
			<stop  offset="1" style="stop-color:#1878BC"/>
		</radialGradient>
		<ellipse fill="url(#SVGID_1_)" cx="510.552" cy="522.663" rx="438.16" ry="437.121"/>
		<g>
			
				<radialGradient id="SVGID_2_" cx="366.335" cy="458.7573" r="379.2211" gradientTransform="matrix(1 0 0 0.9976 0 1.2147)" gradientUnits="userSpaceOnUse">
				<stop  offset="0" style="stop-color:#8AC540"/>
				<stop  offset="1" style="stop-color:#1FA149"/>
			</radialGradient>
			<path fill="url(#SVGID_2_)" d="M184.428,426.1c40.525,0.793,69.926-40.429,123.959-118.908
				c54.033-78.479,132.699-61.833,147.002-93.542c14.303-31.708,1.59-49.148-24.632-53.905
				c-26.222-4.757-92.176,19.025-121.575,17.44c-20.991-1.132-57.773,4.604-77.101,7.979
				C138.759,261.888,77.81,376.386,72.738,505.206c19.45,19.728,40.888,65.559,48.915,69.927
				c8.742,4.757,12.714-26.953,12.714-57.869C134.368,486.347,143.903,425.307,184.428,426.1z"/>
			
				<radialGradient id="SVGID_3_" cx="366.3345" cy="458.7578" r="379.2191" gradientTransform="matrix(1 0 0 0.9976 0 1.2147)" gradientUnits="userSpaceOnUse">
				<stop  offset="0" style="stop-color:#8AC540"/>
				<stop  offset="1" style="stop-color:#1FA149"/>
			</radialGradient>
			<path fill="url(#SVGID_3_)" d="M426.784,649.649c-16.687-6.343-96.942-25.367-139.057-34.88c-42.114-9.513-69.925,0-69.925,0
				s-77.873,15.061-76.282,62.624c1.588,47.563,50.854,76.894,77.076,83.235c26.223,6.344,57.212,33.295,73.899,67.383
				c12.78,26.108,19.507,64.288,30.164,89.646c34.361,16.297,71.183,28.267,109.76,35.194c-17.559-30.685-1.662-70.264-1.662-99.473
				c0-33.295,16.687-67.381,28.606-110.981C471.282,698.797,443.471,655.989,426.784,649.649z"/>
			
				<radialGradient id="SVGID_4_" cx="366.3345" cy="458.7578" r="379.2199" gradientTransform="matrix(1 0 0 0.9976 0 1.2147)" gradientUnits="userSpaceOnUse">
				<stop  offset="0" style="stop-color:#8AC540"/>
				<stop  offset="1" style="stop-color:#1FA149"/>
			</radialGradient>
			<path fill="url(#SVGID_4_)" d="M948.389,505.707c-4.451-116.402-54.529-221.139-132.9-296.929
				c-41.133-8.757-110.946-20.142-129.662-1.469c-27.018,26.953-56.418,81.65-92.175,91.164
				c-35.758,9.512-89.792,37.258-83.435,76.894c6.356,39.636-23.838,98.297,0,130.006c23.839,31.709,55.623,27.747,93.765,32.502
				c38.141,4.757,56.418,58.66,81.846,88.785c25.427,30.123,20.657,42.807,10.328,95.92c-9.867,50.739,0.596,125.326,45.883,171.288
				c45.726-28.439,85.811-65.06,118.209-107.798c-0.79-11.91-3.181-25.005-4.375-43.671c-2.383-37.259-4.768-63.419,24.633-122.873
				C901.642,576.782,932.636,529.122,948.389,505.707z"/>
		</g>
	</g>
	<path d="M507.042,0.012c47.675-0.263,66.746,3.964,66.349,7.927c-0.397,3.964-7.223,2.68-47.278,5.549
		c-71.913,5.153-201.435,31.71-284.472,93.543C158.604,168.862,43.782,288.96,35.042,458.604
		C26.302,628.247,86.69,772.523,188.4,866.065c101.71,93.541,263.812,158.545,482.33,99.09
		c218.517-59.454,301.156-261.598,315.459-391.604c14.303-130.009-27.019-348.007-245.536-453.438c0,0-123.96-67.382-298.775-54.698
		l-16.687-3.171c0,0,76.283-34.088,234.41-4.756c158.128,29.331,276.524,133.971,332.941,274.283
		c56.418,140.312,36.553,325.809-56.417,466.915c-92.969,141.104-220.108,229.89-421.144,225.133
		c-201.037-4.756-345.657-76.894-452.134-253.672C-43.629,593.369,2.457,353.174,73.972,247.741S226.539,64.621,376.72,17.058
		C376.72,17.058,435.533,0.405,507.042,0.012z"/>
	<path d="M31.858,430.068c0,0,42.115-81.651,193.09-164.888c150.977-83.235,305.927-103.054,390.154-98.298
		c84.229,4.757,207.394,13.477,294.801,68.967l11.919,32.502c0,0-59.596-49.941-238.383-70.553
		c-178.788-20.61-369.494,48.356-468.026,110.981C116.881,371.405,64.438,424.518,55.696,427.689
		C46.957,430.859,38.216,430.862,31.858,430.068z"/>
	<path d="M304.41,64.62c0,0-11.919,88.786,40.525,279.833c52.444,191.046,113.628,328.98,204.214,462.158
		c90.585,133.178,125.548,169.643,125.548,169.643l-38.141,8.721c0,0-87.407-104.64-173.226-251.294
		C377.513,587.027,346.523,460.19,314.739,338.903c-31.784-121.286-34.169-265.563-34.169-265.563L304.41,64.62z"/>
	<path d="M452.205,58.278c0,0-27.811-8.72-34.167,7.927c-6.357,16.647,16.687,32.502,53.238,62.626
		c36.552,30.124,120.78,114.945,180.376,270.319c59.596,155.375,93.766,309.165,96.942,413.011
		c3.178,103.846,1.588,137.934,1.588,137.934l27.017-18.233c0,0,12.714-179.153-24.633-321.846
		c-37.347-142.69-74.694-256.051-127.139-348.007S502.269,103.465,452.205,58.278z"/>
	<path d="M789.911,196.212c0,0-45.292-44.393-66.746-45.186c-21.455-0.792,27.018,36.467,63.569,87.201
		c36.551,50.733,91.381,133.179,120.78,271.904c29.4,138.728,4.768,294.102,4.768,294.102l22.248-40.429
		c0,0,15.099-147.448-9.534-281.419C900.362,348.416,822.491,234.263,789.911,196.212z"/>
	<path d="M84.295,594.952c-26.222,21.404-7.945,47.563,10.331,37.258c18.275-10.304,184.35-133.971,309.898-186.29
		c125.549-52.319,289.239-75.309,441.804-30.917c0,0,78.665,23.782,95.353,29.331c16.687,5.549,30.194-3.17,0-19.818
		c-30.195-16.647-151.771-68.966-291.623-66.588c-139.85,2.378-290.827,62.625-402.866,128.421
		C135.151,552.146,84.295,594.952,84.295,594.952z"/>
	<path d="M192.363,795.514c-23.494,26.563-19.071,29.33-6.357,27.745c12.714-1.586,24.633-2.376,71.515-42.015
		c46.883-39.636,155.746-116.53,288.445-152.203c132.7-35.672,200.241-28.538,329.763,1.585
		c43.811,10.19,58.008,25.367,73.104,18.233c15.098-7.136,11.918-22.989-56.417-44.393
		c-68.337-21.404-204.215-54.697-359.164-15.854C378.302,627.455,228.12,755.085,192.363,795.514z"/>
	<path d="M514.974,993.695c0,0-100.916-65.798-196.269-169.644c-95.353-103.847-122.37-174.399-175.608-328.981
		C89.857,340.489,114.49,212.068,114.49,212.068l-38.936,68.174c0,0,8.741,258.43,112.04,434.415
		c103.3,175.984,251.893,254.466,295.596,286.175C526.893,1032.539,514.974,993.695,514.974,993.695z"/>
	<path d="M649.263,793.929C501.466,818.504,373.533,938.205,351.284,971.5l35.757,10.306c0,0,59.053-82.409,245.536-148.239
		c103.299-36.466,252.686-3.964,252.686-3.964l12.713-11.099C897.976,818.504,797.062,769.355,649.263,793.929z"/>
</g>
</svg>
