<?xml version="1.0" encoding="utf-8"?>
<!-- Generator: Adobe Illustrator 13.0.0, SVG Export Plug-In . SVG Version: 6.00 Build 14948)  -->
<!DOCTYPE svg PUBLIC "-//W3C//DTD SVG 1.1//EN" "http://www.w3.org/Graphics/SVG/1.1/DTD/svg11.dtd">
<svg version="1.1" id="Layer_1" xmlns="http://www.w3.org/2000/svg" xmlns:xlink="http://www.w3.org/1999/xlink" x="0px" y="0px"
	 width="64px" height="64.001px" viewBox="0 0 64 64.001" enable-background="new 0 0 64 64.001" xml:space="preserve">
<rect fill="none" width="64" height="64"/>
<g>
	<g>
		
			<radialGradient id="SVGID_1_" cx="22.5889" cy="27.3599" r="25.7785" gradientTransform="matrix(1 0 0 0.9976 0 -0.1474)" gradientUnits="userSpaceOnUse">
			<stop  offset="0" style="stop-color:#A6D6F3"/>
			<stop  offset="1" style="stop-color:#1878BC"/>
		</radialGradient>
		<ellipse fill="url(#SVGID_1_)" cx="31.91" cy="32.667" rx="27.385" ry="27.32"/>
		<g>
			
				<radialGradient id="SVGID_2_" cx="22.896" cy="28.897" r="23.7021" gradientTransform="matrix(1 0 0 0.9976 0 -0.1474)" gradientUnits="userSpaceOnUse">
				<stop  offset="0" style="stop-color:#8AC540"/>
				<stop  offset="1" style="stop-color:#1FA149"/>
			</radialGradient>
			<path fill="url(#SVGID_2_)" d="M11.527,26.631c2.533,0.05,4.37-2.527,7.748-7.432c3.377-4.905,8.293-3.865,9.188-5.846
				c0.894-1.982,0.099-3.072-1.54-3.369s-5.761,1.189-7.599,1.09c-1.312-0.071-3.611,0.288-4.819,0.499
				c-5.833,4.795-9.642,11.951-9.958,20.002c1.215,1.233,2.555,4.097,3.057,4.371c0.546,0.297,0.794-1.685,0.794-3.617
				C8.398,30.397,8.994,26.582,11.527,26.631z"/>
			
				<radialGradient id="SVGID_3_" cx="22.896" cy="28.8975" r="23.701" gradientTransform="matrix(1 0 0 0.9976 0 -0.1474)" gradientUnits="userSpaceOnUse">
				<stop  offset="0" style="stop-color:#8AC540"/>
				<stop  offset="1" style="stop-color:#1FA149"/>
			</radialGradient>
			<path fill="url(#SVGID_3_)" d="M26.674,40.604c-1.043-0.396-6.059-1.586-8.691-2.18c-2.632-0.595-4.37,0-4.37,0
				s-4.867,0.94-4.768,3.913c0.099,2.974,3.178,4.807,4.817,5.202c1.639,0.396,3.576,2.081,4.619,4.212
				c0.799,1.632,1.219,4.018,1.885,5.603c2.148,1.019,4.449,1.767,6.86,2.2c-1.098-1.918-0.104-4.392-0.104-6.218
				c0-2.08,1.043-4.211,1.788-6.936C29.455,43.675,27.717,41,26.674,40.604z"/>
			
				<radialGradient id="SVGID_4_" cx="22.8955" cy="28.8965" r="23.7017" gradientTransform="matrix(1 0 0 0.9976 0 -0.1474)" gradientUnits="userSpaceOnUse">
				<stop  offset="0" style="stop-color:#8AC540"/>
				<stop  offset="1" style="stop-color:#1FA149"/>
			</radialGradient>
			<path fill="url(#SVGID_4_)" d="M59.274,31.607c-0.278-7.275-3.408-13.821-8.307-18.558c-2.57-0.547-6.934-1.259-8.104-0.092
				c-1.688,1.685-3.526,5.103-5.761,5.698c-2.235,0.594-5.612,2.329-5.215,4.806c0.397,2.478-1.49,6.144,0,8.125
				c1.49,1.982,3.477,1.734,5.86,2.031c2.384,0.298,3.526,3.666,5.115,5.549s1.291,2.676,0.646,5.995
				c-0.617,3.172,0.037,7.833,2.867,10.706c2.858-1.777,5.363-4.066,7.389-6.737c-0.05-0.745-0.199-1.563-0.273-2.729
				c-0.149-2.329-0.298-3.964,1.539-7.68C56.353,36.049,58.29,33.07,59.274,31.607z"/>
		</g>
	</g>
	<path d="M31.69,0.001c2.98-0.017,4.171,0.248,4.147,0.496c-0.024,0.248-0.451,0.167-2.955,0.347
		c-4.494,0.322-12.589,1.982-17.779,5.846C9.913,10.554,2.736,18.06,2.19,28.663c-0.546,10.603,3.228,19.62,9.585,25.466
		c6.357,5.847,16.488,9.909,30.146,6.193c13.657-3.716,18.822-16.35,19.716-24.475c0.895-8.126-1.688-21.751-15.346-28.34
		c0,0-7.748-4.211-18.674-3.418l-1.042-0.198c0,0,4.768-2.131,14.651-0.297c9.883,1.833,17.282,8.373,20.809,17.143
		s2.284,20.363-3.526,29.182S44.751,64.286,32.187,63.989c-12.565-0.298-21.604-4.807-28.258-15.854
		c-6.655-11.049-3.774-26.061,0.695-32.651c4.47-6.589,9.536-11.445,18.922-14.417C23.545,1.066,27.221,0.025,31.69,0.001z"/>
	<path d="M1.991,26.879c0,0,2.632-5.103,12.068-10.305c9.436-5.202,19.121-6.441,24.385-6.144c5.264,0.297,12.962,0.842,18.425,4.31
		l0.745,2.032c0,0-3.725-3.122-14.899-4.41c-11.174-1.288-23.093,3.022-29.251,6.936s-9.436,7.234-9.982,7.432
		C2.935,26.929,2.389,26.929,1.991,26.879z"/>
	<path d="M19.026,4.039c0,0-0.745,5.549,2.533,17.489S28.66,42.09,34.322,50.413c5.661,8.324,7.847,10.603,7.847,10.603
		l-2.384,0.546c0,0-5.463-6.54-10.827-15.706c-5.363-9.166-7.3-17.093-9.287-24.674c-1.987-7.58-2.136-16.598-2.136-16.598
		L19.026,4.039z"/>
	<path d="M28.263,3.643c0,0-1.738-0.545-2.135,0.496c-0.397,1.041,1.043,2.031,3.327,3.914c2.285,1.883,7.549,7.184,11.274,16.895
		s5.86,19.322,6.059,25.813c0.198,6.49,0.1,8.62,0.1,8.62l1.688-1.14c0,0,0.794-11.196-1.54-20.115
		c-2.334-8.918-4.668-16.003-7.946-21.75C35.812,10.628,31.392,6.467,28.263,3.643z"/>
	<path d="M49.369,12.264c0,0-2.83-2.775-4.171-2.824c-1.342-0.05,1.688,2.279,3.973,5.45s5.711,8.323,7.549,16.994
		s0.298,18.381,0.298,18.381l1.391-2.526c0,0,0.943-9.216-0.596-17.589C56.272,21.776,51.405,14.642,49.369,12.264z"/>
	<path d="M5.269,37.185c-1.639,1.338-0.497,2.973,0.646,2.329c1.142-0.645,11.522-8.374,19.369-11.644
		c7.847-3.27,18.078-4.707,27.613-1.932c0,0,4.917,1.486,5.96,1.833c1.043,0.347,1.887-0.198,0-1.238
		c-1.888-1.041-9.486-4.311-18.227-4.162c-8.741,0.149-18.177,3.914-25.179,8.026C8.447,34.51,5.269,37.185,5.269,37.185z"/>
	<path d="M12.022,49.72c-1.468,1.66-1.192,1.833-0.397,1.734c0.794-0.1,1.54-0.148,4.47-2.626s9.734-7.283,18.028-9.513
		s12.515-1.784,20.61,0.099c2.737,0.637,3.625,1.586,4.568,1.14c0.944-0.445,0.745-1.437-3.525-2.774
		c-4.271-1.338-12.764-3.418-22.448-0.991C23.644,39.216,14.257,47.193,12.022,49.72z"/>
	<path d="M32.186,62.106c0,0-6.307-4.112-12.267-10.603c-5.959-6.491-7.648-10.9-10.976-20.562
		c-3.327-9.662-1.788-17.688-1.788-17.688l-2.434,4.261c0,0,0.546,16.151,7.002,27.15S27.468,60.57,30.199,62.553
		C32.931,64.534,32.186,62.106,32.186,62.106z"/>
	<path d="M40.579,49.621c-9.237,1.535-17.233,9.017-18.624,11.098l2.235,0.645c0,0,3.691-5.15,15.346-9.266
		c6.456-2.278,15.793-0.247,15.793-0.247l0.794-0.694C56.123,51.156,49.816,48.085,40.579,49.621z"/>
</g>
</svg>
