<?xml version="1.0" encoding="UTF-8" standalone="no"?>
<svg
   xmlns:dc="http://purl.org/dc/elements/1.1/"
   xmlns:cc="http://creativecommons.org/ns#"
   xmlns:rdf="http://www.w3.org/1999/02/22-rdf-syntax-ns#"
   xmlns:svg="http://www.w3.org/2000/svg"
   xmlns="http://www.w3.org/2000/svg"
   xmlns:sodipodi="http://sodipodi.sourceforge.net/DTD/sodipodi-0.dtd"
   xmlns:inkscape="http://www.inkscape.org/namespaces/inkscape"
   inkscape:version="1.0 (4035a4fb49, 2020-05-01)"
   sodipodi:docname="logo.svg"
   viewBox="0 0 710.92357 755.65619"
   height="755.65619"
   width="710.92358"
   xml:space="preserve"
   id="svg833"
   version="1.1"><metadata
     id="metadata839"><rdf:RDF><cc:Work
         rdf:about=""><dc:format>image/svg+xml</dc:format><dc:type
           rdf:resource="http://purl.org/dc/dcmitype/StillImage" /></cc:Work></rdf:RDF></metadata><defs
     id="defs837"><clipPath
       id="clipPath849"
       clipPathUnits="userSpaceOnUse"><path
         id="path847"
         d="M 0,0 H 2280.879 V 720.125 H 0 Z" /></clipPath></defs><sodipodi:namedview
     inkscape:current-layer="g841"
     inkscape:window-maximized="0"
     inkscape:window-y="78"
     inkscape:window-x="78"
     inkscape:cy="380.63433"
     inkscape:cx="1414.0581"
     inkscape:zoom="0.93911122"
     showgrid="false"
     id="namedview835"
     inkscape:window-height="1198"
     inkscape:window-width="3352"
     inkscape:pageshadow="2"
     inkscape:pageopacity="0"
     guidetolerance="10"
     gridtolerance="10"
     objecttolerance="10"
     borderopacity="1"
     bordercolor="#666666"
     pagecolor="#ffffff"><sodipodi:guide
       id="guide935"
       orientation="0,710.92358"
       position="0,755.65618" /><sodipodi:guide
       id="guide937"
       orientation="755.65619,0"
       position="710.92358,755.65618" /><sodipodi:guide
       id="guide939"
       orientation="0,-710.92358"
       position="710.92358,0" /><sodipodi:guide
       id="guide941"
       orientation="-755.65619,0"
       position="0,0" /></sodipodi:namedview><g
     transform="matrix(1.3333333,0,0,-1.3333333,-106.52859,860.71766)"
     inkscape:label="citSci_final_gjn"
     inkscape:groupmode="layer"
     id="g841"><g
       transform="matrix(0.9,0,0,0.9,34.649278,36.216719)"
       id="g843"><g
         clip-path="url(#clipPath849)"
         id="g845"><g
           transform="translate(237.3691,176.8018)"
           id="g851"><path
             id="path853"
             style="fill:#87983f;fill-opacity:1;fill-rule:nonzero;stroke:none"
             d="M 0,0 C 16.228,-68.44 84.865,-110.769 153.306,-94.541 221.747,-78.313 264.074,-9.677 247.847,58.765 231.62,127.205 162.982,169.533 94.542,153.306 26.101,137.078 -16.227,68.441 0,0" /></g><g
           transform="translate(513.5376,432.9463)"
           id="g855"><path
             id="path857"
             style="fill:#87983f;fill-opacity:1;fill-rule:nonzero;stroke:none"
             d="M 0,0 C 5.476,-23.093 28.635,-37.375 51.728,-31.899 74.82,-26.424 89.103,-3.265 83.627,19.828 78.152,42.921 54.993,57.203 31.9,51.728 8.807,46.252 -5.475,23.093 0,0" /></g><g
           transform="translate(396.7695,398.3818)"
           id="g859"><path
             id="path861"
             style="fill:#87983f;fill-opacity:1;fill-rule:nonzero;stroke:none"
             d="M 0,0 C 6.049,-25.513 31.636,-41.292 57.149,-35.242 82.663,-29.193 98.441,-3.607 92.392,21.906 86.343,47.42 60.756,63.198 35.243,57.149 9.73,51.101 -6.049,25.514 0,0" /></g><g
           transform="translate(468.9399,308.583)"
           id="g863"><path
             id="path865"
             style="fill:#87983f;fill-opacity:1;fill-rule:nonzero;stroke:none"
             d="m 0,0 c 8.831,-37.243 46.18,-60.275 83.422,-51.445 37.243,8.83 60.276,46.178 51.446,83.422 C 126.037,69.219 88.688,92.252 51.445,83.422 14.203,74.592 -8.83,37.242 0,0" /></g><g
           transform="translate(468.4521,551.3311)"
           id="g867"><path
             id="path869"
             style="fill:#87983f;fill-opacity:1;fill-rule:nonzero;stroke:none"
             d="M 0,0 C 2.215,-9.344 12.352,-14.941 22.641,-12.502 32.93,-10.063 39.475,-0.51 37.259,8.834 35.043,18.178 24.907,23.775 14.618,21.336 4.329,18.896 -2.215,9.344 0,0" /></g><g
           transform="translate(500.4727,509.9502)"
           id="g871"><path
             id="path873"
             style="fill:#87983f;fill-opacity:1;fill-rule:nonzero;stroke:none"
             d="m 0,0 c 3.33,-14.045 18.566,-22.459 34.032,-18.792 15.465,3.667 25.302,18.025 21.972,32.07 C 52.674,27.323 37.438,35.736 21.973,32.069 6.507,28.403 -3.33,14.045 0,0" /></g><g
           transform="translate(500.7959,210.4072)"
           id="g875"><path
             id="path877"
             style="fill:#87983f;fill-opacity:1;fill-rule:nonzero;stroke:none"
             d="M 0,0 C 3.616,-15.251 20.161,-24.387 36.955,-20.405 53.748,-16.424 64.43,-0.832 60.814,14.419 57.198,29.671 40.653,38.807 23.86,34.825 7.066,30.844 -3.616,15.252 0,0" /></g><g
           transform="translate(428.7188,544.1963)"
           id="g879"><path
             id="path881"
             style="fill:#87983f;fill-opacity:1;fill-rule:nonzero;stroke:none"
             d="m 0,0 c 4.422,-6.974 14.231,-8.679 21.91,-3.81 7.678,4.87 10.318,14.47 5.895,21.444 -4.422,6.972 -14.232,8.678 -21.91,3.808 C -1.783,16.573 -4.422,6.973 0,0" /></g><g
           transform="translate(421.0474,491.752)"
           id="g883"><path
             id="path885"
             style="fill:#87983f;fill-opacity:1;fill-rule:nonzero;stroke:none"
             d="M 0,0 C 3.884,-16.382 21.655,-26.194 39.693,-21.918 57.731,-17.642 69.206,-0.894 65.321,15.488 61.438,31.87 43.666,41.683 25.628,37.406 7.59,33.129 -3.884,16.382 0,0" /></g><g
           transform="translate(313.4414,481.8652)"
           id="g887"><path
             id="path889"
             style="fill:#444444;fill-opacity:1;fill-rule:nonzero;stroke:none"
             d="M 0,0 C 32.88,47.182 21.287,112.085 -25.895,144.966 -73.077,177.846 -137.98,166.252 -170.86,119.07 -203.741,71.889 -192.147,6.985 -144.966,-25.895 -97.784,-58.775 -32.88,-47.182 0,0" /></g><g
           transform="translate(371.833,624.1631)"
           id="g891"><path
             id="path893"
             style="fill:#00b0f0;fill-opacity:1;fill-rule:nonzero;stroke:none"
             d="m 0,0 c -7.953,0.701 -15.959,1.057 -23.874,1.057 -6.395,0 -12.741,-0.226 -19.03,-0.666 36.333,-44.13 40.632,-108.787 6.383,-157.931 -24.444,-35.077 -64.591,-56.019 -107.393,-56.019 -26.804,0 -52.629,8.124 -74.685,23.495 -18.51,12.9 -32.656,29.759 -42.097,48.649 -15.54,-29.342 -25.867,-62.027 -29.666,-96.914 -12.105,-111.16 46.629,-214.192 140.266,-264.92 -10.801,16.248 -18.827,34.652 -23.245,54.373 -13.29,59.324 9.055,116.946 59.774,154.14 C 11.763,-202.826 48.985,-106.324 0,0" /></g><g
           transform="translate(413.8721,605.8984)"
           id="g895"><path
             id="path897"
             style="fill:#87983f;fill-opacity:1;fill-rule:nonzero;stroke:none"
             d="m 0,0 c 0.906,-3.819 5.049,-6.107 9.254,-5.11 4.205,0.997 6.88,4.901 5.975,8.72 C 14.323,7.43 10.18,9.717 5.975,8.72 1.77,7.723 -0.905,3.818 0,0" /></g><g
           transform="translate(425.5469,579.3838)"
           id="g899"><path
             id="path901"
             style="fill:#87983f;fill-opacity:1;fill-rule:nonzero;stroke:none"
             d="m 0,0 c 2.743,-4.325 8.828,-5.383 13.59,-2.362 4.763,3.02 6.4,8.974 3.657,13.3 -2.743,4.326 -8.828,5.383 -13.59,2.363 C -1.106,10.28 -2.743,4.325 0,0" /></g><g
           transform="translate(453.3662,579.1475)"
           id="g903"><path
             id="path905"
             style="fill:#87983f;fill-opacity:1;fill-rule:nonzero;stroke:none"
             d="M 0,0 C 3.549,-5.597 11.421,-6.965 17.583,-3.057 23.746,0.851 25.864,8.556 22.315,14.152 18.766,19.748 10.893,21.117 4.731,17.209 -1.431,13.301 -3.549,5.597 0,0" /></g><g
           transform="translate(481.1992,457.377)"
           id="g907"><path
             id="path909"
             style="fill:#87983f;fill-opacity:1;fill-rule:nonzero;stroke:none"
             d="m 0,0 c 3.549,-5.597 11.422,-6.966 17.584,-3.058 6.162,3.909 8.28,11.613 4.731,17.209 C 18.766,19.748 10.894,21.116 4.731,17.209 -1.431,13.301 -3.549,5.596 0,0" /></g><g
           transform="translate(589.0537,387.793)"
           id="g911"><path
             id="path913"
             style="fill:#87983f;fill-opacity:1;fill-rule:nonzero;stroke:none"
             d="M 0,0 C 3.549,-5.597 11.421,-6.965 17.583,-3.057 23.746,0.851 25.864,8.556 22.315,14.152 18.766,19.748 10.894,21.117 4.731,17.209 -1.431,13.301 -3.549,5.597 0,0" /></g><g
           transform="translate(358.7285,350.1475)"
           id="g915"><path
             id="path917"
             style="fill:#87983f;fill-opacity:1;fill-rule:nonzero;stroke:none"
             d="M 0,0 C 5.937,-9.361 19.106,-11.65 29.414,-5.113 39.722,1.424 43.265,14.312 37.328,23.674 31.391,33.035 18.222,35.324 7.914,28.787 -2.394,22.25 -5.937,9.361 0,0" /></g><g
           transform="translate(425.8618,327.9297)"
           id="g919"><path
             id="path921"
             style="fill:#87983f;fill-opacity:1;fill-rule:nonzero;stroke:none"
             d="m 0,0 c 4.629,-7.3 14.897,-9.085 22.935,-3.987 8.037,5.096 10.799,15.146 6.17,22.445 C 24.476,25.757 14.208,27.543 6.171,22.445 -1.866,17.349 -4.629,7.299 0,0" /></g></g></g></g></svg>
