<?xml version="1.0" encoding="UTF-8" standalone="no"?>
<!-- Created with Inkscape (http://www.inkscape.org/) -->

<svg xmlns="http://www.w3.org/2000/svg" width="24" height="24" viewBox="0 0 6.35 6.35">
   <!-- viewBox="0 0 6.3499999 6.35" -->
   <g
      transform="matrix(0.2645641,0,0,0.26458333,-0.1983798,-0.06614583)"
      id="g628">
   <path
      fill="#000000"
      d="M 18,20 H 15.88 C 15.2,18.25 13.49,17 11.5,17 9.51,17 7.8,18.25 7.12,20 H 5 V 17.88 C 6.75,17.2 8,15.49 8,13.5 8,11.51 6.76,9.8 5.01,9.12 L 5,7 H 18 Z M 11.5,2.5 C 10.12,2.5 9,3.62 9,5 H 5 C 3.9,5 3.01,5.9 3.01,7 v 3.8 H 3.3 c 1.49,0 2.7,1.21 2.7,2.7 0,1.49 -1.21,2.7 -2.7,2.7 H 3 V 20 c 0,1.1 0.9,2 2,2 h 3.8 v -0.3 c 0,-1.49 1.21,-2.7 2.7,-2.7 1.49,0 2.7,1.21 2.7,2.7 V 22 H 18 c 1.1,0 2,-0.9 2,-2 v -4 c 1.38,0 2.5,-1.12 2.5,-2.5 C 22.5,12.12 21.38,11 20,11 V 7 C 20,5.9 19.1,5 18,5 H 14 C 14,3.62 12.88,2.5 11.5,2.5 Z"
      id="path626" />
   </g>
</svg>
