<?xml version="1.0" encoding="UTF-8" standalone="no"?>
<svg
   viewBox="0 0 22 22"
   version="1.1"
   id="svg132"
   sodipodi:docname="mark-change.svg"
   inkscape:version="1.2 (dc2aedaf03, 2022-05-15)"
   width="22"
   height="22"
   xmlns:inkscape="http://www.inkscape.org/namespaces/inkscape"
   xmlns:sodipodi="http://sodipodi.sourceforge.net/DTD/sodipodi-0.dtd"
   xmlns="http://www.w3.org/2000/svg"
   xmlns:svg="http://www.w3.org/2000/svg">
  <defs
     id="defs136" />
  <sodipodi:namedview
     id="namedview134"
     pagecolor="#808080"
     bordercolor="#000000"
     borderopacity="0.25"
     inkscape:showpageshadow="2"
     inkscape:pageopacity="0"
     inkscape:pagecheckerboard="0"
     inkscape:deskcolor="#d1d1d1"
     showgrid="false"
     inkscape:zoom="21.395833"
     inkscape:cx="4.6504382"
     inkscape:cy="4.2297956"
     inkscape:window-width="1944"
     inkscape:window-height="1230"
     inkscape:window-x="351"
     inkscape:window-y="180"
     inkscape:window-maximized="0"
     inkscape:current-layer="svg132" />
  <path
     d="M 11,1 C 7.1340068,1 4,4.1340068 4,8 c 0,5.25 7,13 7,13 0,0 7,-7.75 7,-13 0,-3.8659932 -3.134007,-7 -7,-7 z"
     id="path130"
     style="fill:#000000;stroke:#ffffff;stroke-width:0.5"
     sodipodi:nodetypes="sscss" />
  <path
     d="M 13.947081,8.6 13.611088,8.9529412 12.922301,8.2294118 13.258295,7.8764706 c 0.07056,-0.074118 0.188156,-0.074118 0.258714,0 l 0.430072,0.4517647 c 0.07056,0.074118 0.07056,0.1976471 0,0.2717647 M 10.687946,10.572941 12.724065,8.4341176 13.412851,9.1576471 11.380092,11.3 h -0.692146 v -0.727059 m 0,-1.7435292 C 9.202856,8.8294118 8,9.4611765 8,10.241176 v 0.705883 h 2.01596 V 10.28 L 11.359933,8.8682353 C 11.138177,8.84 10.913062,8.8294118 10.687946,8.8294118 m 0,-3.5294118 A 1.3439731,1.4117647 0 0 0 9.3439731,6.7117647 1.3439731,1.4117647 0 0 0 10.687946,8.1235294 1.3439731,1.4117647 0 0 0 12.031919,6.7117647 1.3439731,1.4117647 0 0 0 10.687946,5.3 Z"
     id="path1048"
     style="fill:#ffffff;stroke-width:0.344363" />
</svg>
