<?xml version="1.0" encoding="UTF-8" standalone="no"?>
<svg
   viewBox="0 0 22 22"
   version="1.1"
   id="svg12"
   sodipodi:docname="mark-circle.svg"
   width="22"
   height="22"
   inkscape:version="1.2 (dc2aedaf03, 2022-05-15)"
   xmlns:inkscape="http://www.inkscape.org/namespaces/inkscape"
   xmlns:sodipodi="http://sodipodi.sourceforge.net/DTD/sodipodi-0.dtd"
   xmlns="http://www.w3.org/2000/svg"
   xmlns:svg="http://www.w3.org/2000/svg">
  <defs
     id="defs16" />
  <sodipodi:namedview
     id="namedview14"
     pagecolor="#808080"
     bordercolor="#000000"
     borderopacity="0.25"
     inkscape:showpageshadow="2"
     inkscape:pageopacity="0"
     inkscape:pagecheckerboard="0"
     inkscape:deskcolor="#d1d1d1"
     showgrid="false"
     inkscape:zoom="42.791667"
     inkscape:cx="8.2609542"
     inkscape:cy="11.988315"
     inkscape:window-width="3440"
     inkscape:window-height="1369"
     inkscape:window-x="-8"
     inkscape:window-y="-8"
     inkscape:window-maximized="1"
     inkscape:current-layer="svg12" />
  <path
     d="M 11,10.5 A 2.5,2.5 0 0 1 8.5,8 2.5,2.5 0 0 1 11,5.5 2.5,2.5 0 0 1 13.5,8 2.5,2.5 0 0 1 11,10.5 M 11,1 A 7,7 0 0 0 4,8 c 0,5.25 7,13 7,13 0,0 7,-7.75 7,-13 A 7,7 0 0 0 11,1 Z"
     id="path10"
     style="fill:#000000;stroke:#ffffff;stroke-width:0.5" />
</svg>
