<?xml version="1.0" encoding="UTF-8" standalone="yes"?>
<svg xmlns="http://www.w3.org/2000/svg" viewBox="0 0 24 24" width="24" height="24" fill="#000000">
  <path style="line-height:normal;text-indent:0;text-align:start;text-decoration-line:none;text-decoration-style:solid;text-decoration-color:#000000;text-transform:none;block-progression:tb;isolation:auto;mix-blend-mode:normal" d="M 12 1 L 8 10 L 12 8 L 16 10 L 12 1 z M 8.6367188 3.6445312 C 5.595205 4.8937082 3.4295886 7.679347 3.0625 11 L 1 11 L 1 13 L 3.0585938 13 C 3.514863 17.19428 6.8057199 20.485137 11 20.941406 L 11 23 L 13 23 L 13 20.941406 C 17.19428 20.485137 20.485137 17.19428 20.941406 13 L 23 13 L 23 11 L 20.9375 11 C 20.570411 7.679347 18.404795 4.8937082 15.363281 3.6445312 L 16.804688 6.8867188 C 18.144687 8.1827187 19 9.982 19 12 C 19 15.9 15.9 19 12 19 C 8.1 19 5 15.9 5 12 C 5 9.982 5.8553125 8.1827187 7.1953125 6.8867188 L 8.6367188 3.6445312 z" font-weight="400" font-family="sans-serif" white-space="normal" overflow="visible"/>
</svg>
