<?xml version="1.0" ?><!DOCTYPE svg  PUBLIC '-//W3C//DTD SVG 1.1//EN'  'http://www.w3.org/Graphics/SVG/1.1/DTD/svg11.dtd'><svg height="6.82666in" style="shape-rendering:geometricPrecision; text-rendering:geometricPrecision; image-rendering:optimizeQuality; fill-rule:evenodd; clip-rule:evenodd" viewBox="0 0 6.82666 6.82666" width="6.82666in" xml:space="preserve" xmlns="http://www.w3.org/2000/svg" xmlns:xlink="http://www.w3.org/1999/xlink"><defs><style type="text/css">
   <![CDATA[
    .fil2 {fill:none}
    .fil0 {fill:#141414}
    .fil1 {fill:#141414;fill-rule:nonzero}
   ]]>
  </style></defs><g id="Layer_x0020_1"><g id="_242344928"><path class="fil0" d="M2.17407 4.57806l-0.0142047 0.0282205c-0.000984252,0.00195669 -0.00207874,0.00375197 -0.00310236,0.00566535l-0.000326772 0.000629921c-0.0542835,0.104783 -0.142689,0.208602 -0.241315,0.274531 -0.0850433,0.0568465 -0.156677,0.108665 -0.239528,0.113201 0.00993307,-0.0120866 0.0182323,-0.0258425 0.0244252,-0.041063l0.00446457 -0.0109764c0.00933071,-0.0219882 0.0196496,-0.0436732 0.0301929,-0.0650551 0.0483228,-0.098 0.103177,-0.194295 0.156378,-0.289768l0.0199409 -0.0358071c0.0122677,-0.0179016 0.0231535,-0.0362205 0.0322756,-0.0544646 0.000767717,-0.00163386 0.00141339,-0.00317717 0.00223228,-0.00479921l0.0165669 -0.032878 0.00152362 -0.00277165 0.000283465 0.000141732c0.00229921,-0.00442913 0.00462598,-0.0088622 0.00695669,-0.0132953 0.0133346,-0.0242598 0.0266063,-0.048563 0.0397717,-0.0729213 0.171594,-0.303213 0.419913,-0.594291 0.790445,-0.611374 0.168504,-0.00776772 0.334421,0.0412677 0.487677,0.10735 0.165346,0.0712913 0.322756,0.164409 0.477906,0.25539 0.143055,0.0838858 0.290976,0.172429 0.444421,0.235689 0.106008,0.0437008 0.222606,0.0764409 0.338299,0.0667677 0.123642,-0.0103386 0.225228,-0.0675394 0.312909,-0.153307 0.0997953,-0.0976142 0.179287,-0.229528 0.242496,-0.36128 0.00724409,0.0157362 0.0140276,0.0315354 0.0200906,0.0472992 0.0161181,0.0419173 0.0479488,0.0755866 0.0897126,0.0925748 0.0274606,0.0111693 0.0563307,0.014063 0.0838071,0.00988583 -0.0739961,0.147622 -0.165307,0.291413 -0.279024,0.402555 -0.117106,0.114453 -0.254299,0.190087 -0.418638,0.207055 -0.164815,0.0170157 -0.329594,-0.0277717 -0.480764,-0.0900945 -0.164555,-0.0678386 -0.321071,-0.160732 -0.474398,-0.250642 -0.135953,-0.0797205 -0.27439,-0.161862 -0.419358,-0.224114 -0.125335,-0.0538268 -0.263268,-0.0954094 -0.401083,-0.0875748 -0.12772,0.00725984 -0.237866,0.0560748 -0.336406,0.136547 -0.132677,0.108343 -0.235551,0.266421 -0.31463,0.418681z" id="_242345648"/><path class="fil1" d="M5.27485 1.82635c0.19287,0 0.367496,0.078189 0.493898,0.204587 0.126398,0.126402 0.204587,0.301028 0.204587,0.493902 0,0.26813 -0.238972,0.697004 -0.429126,1.03826 -0.0846339,0.15189 -0.159181,0.285669 -0.195295,0.374457l3.93701e-005 0.000141732c-0.0166457,0.0409252 -0.0633189,0.0606063 -0.104244,0.0439606 -0.0219528,-0.00892913 -0.0377835,-0.0264961 -0.045185,-0.047185 -0.0365669,-0.0887835 -0.110374,-0.221232 -0.194035,-0.371386 -0.190154,-0.341248 -0.429122,-0.770114 -0.429122,-1.03824 0,-0.19287 0.078189,-0.367496 0.204587,-0.493898 0.126402,-0.126402 0.301028,-0.204591 0.493898,-0.204591zm-0.281697 0.416791c-0.0720945,0.0720984 -0.116689,0.171693 -0.116689,0.281697 0,0.11 0.0445984,0.209602 0.116689,0.281693 0.0720984,0.0720945 0.171697,0.116689 0.281697,0.116689 0.110004,0 0.209598,-0.0445945 0.281697,-0.116689 0.0720906,-0.0720906 0.116689,-0.171693 0.116689,-0.281693 0,-0.110004 -0.0445945,-0.209598 -0.116689,-0.281697 -0.0720984,-0.0720945 -0.171693,-0.116689 -0.281697,-0.116689 -0.11,0 -0.209598,0.0445945 -0.281697,0.116689z" id="_242345000"/><path class="fil0" d="M2.04572 3.02235c-0.126402,-0.126398 -0.301028,-0.204587 -0.493898,-0.204587 -0.192874,0 -0.367496,0.078185 -0.493898,0.204587 -0.126402,0.126402 -0.204587,0.301024 -0.204587,0.493898 0,0.268134 0.238976,0.697012 0.42913,1.03826 0.0836535,0.15013 0.157449,0.282559 0.19402,0.37135 0.00694094,0.0194213 0.021315,0.0360945 0.0412047,0.0454567 0.000338583,0.000161417 0.000681102,0.000314961 0.00101969,0.000472441 0.000783465,0.000354331 0.0015748,0.000700787 0.00237402,0.0010315 0.00019685,8.26772e-005 0.000397638,0.000165354 0.000594488,0.000244094 0.0409252,0.0166457 0.0875984,-0.00303543 0.104244,-0.0439606l-3.93701e-005 -0.000141732c0.00974016,-0.0239449 0.0222756,-0.0511654 0.0370512,-0.0811299 0.0400079,-0.0811378 0.096437,-0.182402 0.158244,-0.293327 0.19015,-0.341252 0.429126,-0.770126 0.429126,-1.03826 0,-0.19287 -0.078189,-0.367496 -0.204587,-0.493898zm-0.0955157 0.493898c0,-0.110004 -0.0445945,-0.209598 -0.116689,-0.281697 -0.0720906,-0.0720906 -0.171693,-0.116689 -0.281693,-0.116689 -0.110004,0 -0.209598,0.0445945 -0.281697,0.116689 -0.0720945,0.0720984 -0.116689,0.171701 -0.116689,0.281697 0,0.110004 0.0445945,0.209598 0.116689,0.281697 0.0720984,0.0720945 0.171693,0.116689 0.281697,0.116689 0.11,0 0.209602,-0.0445984 0.281693,-0.116689 0.0720945,-0.0720984 0.116689,-0.171693 0.116689,-0.281697z" id="_242344640"/></g></g><rect class="fil2" height="6.82666" width="6.82666"/></svg>