<?xml version="1.0" ?><!DOCTYPE svg  PUBLIC '-//W3C//DTD SVG 1.1//EN'  'http://www.w3.org/Graphics/SVG/1.1/DTD/svg11.dtd'><svg height="6.82666in" style="shape-rendering:geometricPrecision; text-rendering:geometricPrecision; image-rendering:optimizeQuality; fill-rule:evenodd; clip-rule:evenodd" viewBox="0 0 6.82666 6.82666" width="6.82666in" xml:space="preserve" xmlns="http://www.w3.org/2000/svg" xmlns:xlink="http://www.w3.org/1999/xlink"><defs><style type="text/css">
   <![CDATA[
    .fil1 {fill:none}
    .fil0 {fill:black;fill-rule:nonzero}
   ]]>
  </style></defs><g id="Layer_x0020_1"><path class="fil0" d="M5.3486 3.9339c0.0167402,-0.0407283 -0.0027126,-0.0873228 -0.0434409,-0.104063 -0.0407283,-0.0167402 -0.0873228,0.0027126 -0.104063,0.0434409 -0.295465,0.716697 -0.640811,0.753701 -1.00528,0.603441 -0.145646,-0.0600433 -0.296949,-0.148764 -0.449409,-0.238165 -0.60415,-0.354268 -1.22529,-0.718488 -1.76497,0.353882l0.071252 0.035937 -0.0714606 -0.0359646c-0.000771654,0.0015315 -0.00148031,0.00308268 -0.00214567,0.00463386l-2.3622e-005 4.72441e-005c-0.0360669,0.0697283 -0.0990197,0.149571 -0.174906,0.200299 -0.0656654,0.0438937 -0.14115,0.0640906 -0.213315,0.0279055l6.29921e-005 -0.000122047 -0.000311024 -0.00015748 2.3622e-005 -5.11811e-005c-0.000751969,-0.000377953 -0.00150394,-0.000740157 -0.00226378,-0.00109055l-0.000291339 -0.000149606c-0.0393504,-0.0200197 -0.0874843,-0.00435039 -0.107504,0.035 -0.0200197,0.0393504 -0.00435039,0.0874843 0.035,0.107504l0.000279528 0.000141732c0.000937008,0.000519685 0.00188583,0.0010315 0.00285039,0.00151575l9.05512e-005 -0.000177165c0.133394,0.0671102 0.264248,0.0356299 0.374126,-0.037815 0.0997402,-0.0666732 0.181638,-0.169988 0.228031,-0.259677l0.000338583 -0.000653543c0.00101181,-0.00169291 0.00197638,-0.00343307 0.00287795,-0.00522441l-0.000177165 -9.05512e-005c0.463331,-0.920591 1.01005,-0.600008 1.54181,-0.288189 0.15752,0.0923661 0.313839,0.184028 0.469409,0.248165 0.447488,0.184484 0.867819,0.147965 1.21341,-0.690323zm-3.83305 1.03232c-0.0371614,-0.0207795 -0.0517008,-0.0673543 -0.0323701,-0.10576 0.0194331,-0.0386142 0.0659016,-0.0546575 0.104862,-0.0367244l-0.0724921 0.142484z"/><path class="fil0" d="M1.55182 3.1139c0.11,0 0.209602,0.0445984 0.281693,0.116689 0.0720945,0.0720984 0.116689,0.171693 0.116689,0.281697 0,0.110004 -0.0445945,0.209598 -0.116689,0.281697 -0.0720906,0.0720906 -0.171693,0.116689 -0.281693,0.116689 -0.110004,0 -0.209598,-0.0445945 -0.281697,-0.116689 -0.0720945,-0.0720984 -0.116689,-0.171693 -0.116689,-0.281697 0,-0.109996 0.0445945,-0.209598 0.116689,-0.281697 0.0720984,-0.0720945 0.171693,-0.116689 0.281697,-0.116689zm0.168567 0.229815c-0.0431299,-0.0431299 -0.102736,-0.069815 -0.168567,-0.069815 -0.0658346,0 -0.125437,0.026685 -0.168571,0.069815 -0.0431299,0.0431339 -0.069815,0.102736 -0.069815,0.168571 0,0.0658346 0.026685,0.125437 0.069815,0.168571 0.0431339,0.0431299 0.102736,0.069815 0.168571,0.069815 0.0658307,0 0.125437,-0.026685 0.168567,-0.069815 0.0431299,-0.0431339 0.069815,-0.102736 0.069815,-0.168571 0,-0.0658346 -0.026685,-0.125437 -0.069815,-0.168571z"/><path class="fil0" d="M1.55182 2.8138c0.19287,0 0.367496,0.078189 0.493898,0.204587 0.126398,0.126402 0.204587,0.301028 0.204587,0.493898 0,0.268134 -0.238976,0.697008 -0.429126,1.03826 -0.0846339,0.15189 -0.159181,0.285669 -0.195295,0.374457l-0.074063 -0.03 0.0741024 0.0301417c-0.0166457,0.0409252 -0.0633189,0.0606063 -0.104244,0.0439606 -0.0219606,-0.00893307 -0.0377953,-0.0265079 -0.0451929,-0.0472047 -0.0365709,-0.0887913 -0.110366,-0.22122 -0.19402,-0.37135 -0.190154,-0.341252 -0.42913,-0.77013 -0.42913,-1.03826 0,-0.192874 0.078185,-0.367496 0.204587,-0.493898 0.126402,-0.126402 0.301024,-0.204587 0.493898,-0.204587zm0.380772 0.317713c-0.0974409,-0.097437 -0.232071,-0.157713 -0.380772,-0.157713 -0.148705,0 -0.283331,0.0602717 -0.380772,0.157713 -0.0974409,0.0974409 -0.157713,0.232067 -0.157713,0.380772 0,0.227642 0.227492,0.635909 0.408508,0.96076 0.0479724,0.0860945 0.0928228,0.166587 0.129976,0.237465 0.0371535,-0.070878 0.0820079,-0.15137 0.12998,-0.237469 0.181012,-0.324854 0.408504,-0.733122 0.408504,-0.960756 0,-0.148701 -0.0602756,-0.283331 -0.157713,-0.380772z"/><path class="fil0" d="M5.27485 2.12249c0.110004,0 0.209598,0.0445945 0.281697,0.116689 0.0720945,0.0720984 0.116689,0.171693 0.116689,0.281697 0,0.11 -0.0445984,0.209602 -0.116689,0.281693 -0.0720984,0.0720945 -0.171693,0.116689 -0.281697,0.116689 -0.11,0 -0.209598,-0.0445945 -0.281697,-0.116689 -0.0720906,-0.0720906 -0.116689,-0.171693 -0.116689,-0.281693 0,-0.110004 0.0445945,-0.209598 0.116689,-0.281697 0.0720984,-0.0720945 0.171697,-0.116689 0.281697,-0.116689zm0.168571 0.229815c-0.0431339,-0.0431299 -0.102736,-0.069815 -0.168571,-0.069815 -0.0658346,0 -0.125437,0.026685 -0.168571,0.069815 -0.0431299,0.0431339 -0.069815,0.102736 -0.069815,0.168571 0,0.0658307 0.026685,0.125437 0.069815,0.168567 0.0431339,0.0431299 0.102736,0.069815 0.168571,0.069815 0.0658346,0 0.125437,-0.026685 0.168571,-0.069815 0.0431299,-0.0431299 0.069815,-0.102736 0.069815,-0.168567 0,-0.0658346 -0.026685,-0.125437 -0.069815,-0.168571z"/><path class="fil0" d="M5.27485 1.82239c0.19287,0 0.367496,0.078189 0.493898,0.204587 0.126398,0.126402 0.204587,0.301028 0.204587,0.493902 0,0.26813 -0.238972,0.697004 -0.429126,1.03826 -0.0846339,0.15189 -0.159181,0.285669 -0.195295,0.374457l-0.074063 -0.03 0.0741024 0.0301417c-0.0166457,0.0409252 -0.0633189,0.0606063 -0.104244,0.0439606 -0.0219528,-0.00892913 -0.0377835,-0.0264961 -0.045185,-0.047185 -0.0365669,-0.0887835 -0.110374,-0.221232 -0.194035,-0.371386 -0.190154,-0.341248 -0.429122,-0.770114 -0.429122,-1.03824 0,-0.19287 0.078189,-0.367496 0.204587,-0.493898 0.126402,-0.126402 0.301028,-0.204591 0.493898,-0.204591zm0.380772 0.317713c-0.0974409,-0.097437 -0.232071,-0.157713 -0.380772,-0.157713 -0.148701,0 -0.283331,0.0602756 -0.380772,0.157717 -0.097437,0.0974409 -0.157713,0.232071 -0.157713,0.380772 0,0.227638 0.227484,0.635894 0.4085,0.96074 0.0479764,0.0861024 0.0928346,0.166594 0.129988,0.237476 0.0371535,-0.070878 0.0820039,-0.15137 0.129976,-0.237465 0.181016,-0.32485 0.408504,-0.733114 0.408504,-0.960752 0,-0.148705 -0.0602756,-0.283335 -0.157713,-0.380776z"/></g><rect class="fil1" height="6.82666" width="6.82666"/></svg>