<?xml version="1.0" encoding="UTF-8" standalone="yes"?>
<svg xmlns="http://www.w3.org/2000/svg" xmlns:xlink="http://www.w3.org/1999/xlink" viewBox="0 0 24 24" version="1.1" width="24" height="24" fill="#000000">
  <g id="surface1">
    <path style=" " d="M 6 1 C 5.449219 1 5 1.449219 5 2 C 5 2.550781 5.449219 3 6 3 C 6.550781 3 7 2.550781 7 2 C 7 1.449219 6.550781 1 6 1 Z M 7.8125 1.1875 C 7.914063 1.386719 8 1.699219 8 2 C 9.066406 1.917969 10.308594 2.394531 11.59375 3.25 C 10.59375 4.046875 9.621094 5.070313 8.6875 6.25 C 7.386719 6.433594 6.171875 6.714844 5.09375 7.09375 C 5.007813 5.855469 5.140625 4.769531 5.5 3.90625 C 5.101563 3.804688 4.800781 3.605469 4.5 3.40625 C 4.09375 4.464844 3.988281 5.863281 4.15625 7.4375 C 1.605469 8.539063 0 10.179688 0 12 C 0 13.804688 1.617188 15.429688 4.15625 16.53125 C 3.929688 18.621094 4.234375 20.398438 5.09375 21.5 C 5.195313 21.199219 5.300781 20.886719 5.5 20.6875 C 4.773438 19.789063 4.492188 18.378906 4.59375 16.71875 C 5.789063 17.191406 7.164063 17.53125 8.65625 17.75 C 9.464844 18.773438 10.324219 19.667969 11.1875 20.40625 C 10.375 20.960938 9.585938 21.378906 8.8125 21.59375 L 8.8125 22 C 8.8125 22.199219 8.789063 22.394531 8.6875 22.59375 C 9.699219 22.332031 10.789063 21.78125 11.875 20.96875 C 14.128906 22.671875 16.390625 23.292969 18 22.40625 C 19.59375 21.527344 20.210938 19.285156 19.875 16.5 C 20.34375 16.285156 20.785156 16.066406 21.1875 15.8125 C 20.886719 15.710938 20.605469 15.488281 20.40625 15.1875 C 20.195313 15.316406 19.953125 15.445313 19.71875 15.5625 C 19.5 14.375 19.117188 13.128906 18.59375 11.84375 C 19.167969 10.464844 19.582031 9.121094 19.78125 7.875 C 21.769531 8.851563 23 10.1875 23 11.6875 C 23 11.886719 23.007813 11.988281 22.90625 12.1875 C 23.304688 12.386719 23.585938 12.695313 23.6875 13.09375 C 23.789063 12.695313 23.90625 12.398438 23.90625 12 C 23.90625 10.21875 22.328125 8.601563 19.84375 7.5 C 20.199219 4.746094 19.585938 2.523438 18 1.59375 C 16.421875 0.722656 14.210938 1.304688 12 2.9375 C 10.542969 1.867188 9.09375 1.230469 7.8125 1.1875 Z M 15.59375 2.03125 C 16.1875 2.011719 16.71875 2.125 17.1875 2.40625 C 18.5 3.164063 19.050781 4.894531 18.875 7.125 C 17.808594 6.742188 16.628906 6.441406 15.34375 6.25 C 14.398438 5.046875 13.390625 4.019531 12.375 3.21875 C 13.511719 2.46875 14.617188 2.066406 15.59375 2.03125 Z M 11.96875 3.5 C 12.925781 4.195313 13.898438 5.089844 14.8125 6.1875 C 13.878906 6.070313 12.910156 6 11.90625 6 C 10.96875 6 10.058594 6.054688 9.1875 6.15625 C 10.082031 5.078125 11.027344 4.179688 11.96875 3.5 Z M 10.875 6.3125 C 11.246094 6.292969 11.617188 6.3125 12 6.3125 C 13.054688 6.3125 14.066406 6.367188 15.03125 6.5 C 15.6875 7.320313 16.332031 8.195313 16.90625 9.1875 C 17.28125 9.851563 17.613281 10.53125 17.90625 11.1875 C 17.910156 11.195313 17.902344 11.210938 17.90625 11.21875 C 17.492188 12.320313 16.976563 13.460938 16.3125 14.59375 C 15.835938 15.4375 15.296875 16.21875 14.75 16.9375 C 13.871094 17.042969 12.953125 17.09375 12 17.09375 C 11.046875 17.09375 10.128906 17.046875 9.25 16.9375 C 8.703125 16.21875 8.171875 15.433594 7.6875 14.59375 C 7.003906 13.472656 6.480469 12.347656 6.0625 11.25 C 6.367188 10.570313 6.695313 9.867188 7.09375 9.1875 C 7.648438 8.207031 8.265625 7.308594 8.90625 6.5 C 9.539063 6.410156 10.199219 6.347656 10.875 6.3125 Z M 8.40625 6.59375 C 7.84375 7.335938 7.308594 8.140625 6.8125 9 C 6.480469 9.574219 6.148438 10.140625 5.875 10.71875 C 5.488281 9.589844 5.230469 8.503906 5.125 7.5 C 6.097656 7.117188 7.199219 6.796875 8.40625 6.59375 Z M 15.59375 6.59375 C 16.785156 6.792969 17.878906 7.09375 18.84375 7.46875 C 18.734375 8.480469 18.488281 9.574219 18.09375 10.71875 C 17.824219 10.144531 17.515625 9.570313 17.1875 9 C 16.6875 8.132813 16.15625 7.339844 15.59375 6.59375 Z M 4.21875 7.875 C 4.402344 9.179688 4.761719 10.582031 5.34375 12.03125 C 4.855469 13.257813 4.511719 14.433594 4.3125 15.5625 C 2.273438 14.585938 1 13.210938 1 11.6875 C 1 10.1875 2.230469 8.851563 4.21875 7.875 Z M 12 9 C 10.300781 9 9 10.300781 9 12 C 9 13.699219 10.300781 15 12 15 C 13.699219 15 15 13.699219 15 12 C 15 10.300781 13.699219 9 12 9 Z M 11.90625 10 C 11.9375 10 11.96875 10 12 10 C 12.429688 10 12.828125 10.144531 13.15625 10.375 C 13.054688 10.613281 12.957031 10.898438 12.90625 11 C 12.90625 11.199219 12.8125 11.394531 12.8125 11.59375 C 12.8125 12.09375 13.300781 11.585938 13.5 11.6875 C 13.601563 11.789063 13.59375 12.085938 13.59375 12.1875 C 13.59375 12.488281 13.507813 12.792969 13.40625 13.09375 C 13.367188 13.214844 13.375 13.324219 13.40625 13.40625 C 13.042969 13.769531 12.550781 14 12 14 C 11.90625 14 11.8125 13.980469 11.71875 13.96875 C 11.6875 13.808594 11.6875 13.660156 11.6875 13.5 C 11.6875 13.101563 11.894531 12.894531 12.09375 12.59375 C 12.195313 12.492188 12.1875 12.292969 12.1875 12.09375 C 12.1875 11.992188 12.207031 11.886719 12.40625 11.6875 C 12.304688 11.488281 12.289063 11.40625 12.1875 11.40625 C 11.886719 11.40625 11.386719 11.605469 11.1875 11.40625 C 11.085938 11.304688 11.085938 11.101563 11.1875 11 C 11.289063 10.800781 11.492188 10.894531 11.59375 11.09375 C 11.792969 11.195313 11.6875 10.601563 11.6875 10.5 C 11.789063 10.398438 11.90625 10.289063 11.90625 10.1875 C 11.917969 10.113281 11.914063 10.058594 11.90625 10 Z M 10.5 11.5 C 10.898438 11.398438 10.792969 11.800781 10.59375 12 C 10.394531 12.101563 10.304688 12.199219 10.40625 12.5 C 10.507813 12.898438 10.800781 13.195313 11 13.59375 C 11.03125 13.65625 11.042969 13.71875 11.0625 13.78125 C 10.425781 13.445313 10 12.765625 10 12 C 10 11.90625 10.019531 11.8125 10.03125 11.71875 C 10.089844 11.769531 10.128906 11.8125 10.1875 11.8125 C 10.289063 11.710938 10.300781 11.5 10.5 11.5 Z M 18.375 12.34375 C 18.820313 13.53125 19.117188 14.683594 19.28125 15.75 C 18.28125 16.191406 17.128906 16.554688 15.84375 16.78125 C 16.246094 16.214844 16.632813 15.628906 17 15 C 17.539063 14.121094 17.984375 13.222656 18.375 12.34375 Z M 5.53125 12.46875 C 5.890625 13.308594 6.316406 14.15625 6.8125 15 C 7.160156 15.601563 7.523438 16.175781 7.90625 16.71875 C 6.714844 16.484375 5.628906 16.160156 4.6875 15.75 C 4.839844 14.710938 5.101563 13.617188 5.53125 12.46875 Z M 22 13 C 21.449219 13 21 13.449219 21 14 C 21 14.550781 21.449219 15 22 15 C 22.550781 15 23 14.550781 23 14 C 23 13.449219 22.550781 13 22 13 Z M 19.40625 16.6875 C 19.574219 18.902344 19.066406 20.652344 17.8125 21.40625 C 16.453125 22.191406 14.570313 21.6875 12.65625 20.3125 C 13.484375 19.601563 14.28125 18.757813 15.0625 17.78125 C 16.671875 17.574219 18.136719 17.207031 19.40625 16.6875 Z M 10.0625 17.90625 C 10.695313 17.957031 11.335938 18 12 18 C 12.660156 18 13.304688 17.957031 13.9375 17.90625 C 13.308594 18.628906 12.660156 19.277344 12 19.8125 C 11.34375 19.273438 10.695313 18.636719 10.0625 17.90625 Z M 7 21 C 6.449219 21 6 21.449219 6 22 C 6 22.550781 6.449219 23 7 23 C 7.550781 23 8 22.550781 8 22 C 8 21.449219 7.550781 21 7 21 Z "/>
  </g>
</svg>
